<?xml version='1.0' encoding='UTF-8'?>
<!-- Created with Fritzing (https://fritzing.org/) -->
<svg xmlns="http://www.w3.org/2000/svg" x="0in"  y="0in" version="1.2" xmlns:svg="http://www.w3.org/2000/svg" height="3.45146in" width="6.01597in" viewBox="0 0 433.15 248.505" baseProfile="tiny">
 <g  id="watermark">
  <g >
   <g >
    <path  fill="#8C8C8C" d="M408.418,242.305c-0.604,0,-1.131,0.325,-1.422,0.809l-2.796,0l3.96,-4.071c0.146,-0.146,0.289,-0.322,0.428,-0.521c0.149,-0.222,0.228,-0.479,0.228,-0.768c0,-0.279,-0.097,-0.518,-0.287,-0.71c-0.19,-0.188,-0.444,-0.287,-0.754,-0.287l-4.636,0c-0.305,0,-0.555,0.06,-0.742,0.17c-0.219,0.13,-0.33,0.368,-0.33,0.707c0,0.329,0.111,0.562,0.33,0.692c0.188,0.111,0.438,0.168,0.742,0.168l3.148,0l-3.974,4.086c-0.146,0.147,-0.289,0.315,-0.425,0.504c-0.153,0.212,-0.23,0.472,-0.23,0.771c0,0.28,0.096,0.521,0.288,0.711c0.188,0.188,0.442,0.285,0.754,0.285l4.315,0c0.293,0.467,0.812,0.776,1.4,0.776c0.916,0,1.66,-0.744,1.66,-1.661C410.077,243.05,409.332,242.305,408.418,242.305zM408.418,244.568c-0.334,0,-0.604,-0.271,-0.604,-0.604c0,-0.333,0.27,-0.604,0.604,-0.604c0.332,0,0.604,0.271,0.604,0.604C409.021,244.299,408.75,244.568,408.418,244.568z"/>
    <path  fill="#8C8C8C" d="M391.475,232.263c-0.914,0,-1.659,0.745,-1.659,1.66c0,0.916,0.745,1.66,1.659,1.66s1.658,-0.744,1.658,-1.66C393.135,233.008,392.391,232.263,391.475,232.263zM391.476,234.526c-0.333,0,-0.604,-0.27,-0.604,-0.603s0.271,-0.603,0.604,-0.603c0.331,0,0.604,0.27,0.604,0.603S391.807,234.526,391.476,234.526z"/>
    <path  fill="#8C8C8C" d="M399.996,236.925c-0.193,-0.111,-0.439,-0.169,-0.732,-0.169l-1.465,0L397.799,234.234c0,-0.292,-0.057,-0.538,-0.166,-0.729C397.543,233.348,397.35,233.163,396.94,233.163c-0.34,0,-0.578,0.116,-0.709,0.342c-0.109,0.193,-0.167,0.438,-0.167,0.729l0,2.521l-0.481,0c-0.295,0,-0.539,0.06,-0.731,0.169c-0.228,0.129,-0.341,0.368,-0.341,0.708c0,0.412,0.185,0.603,0.341,0.692c0.192,0.111,0.438,0.168,0.731,0.168l0.481,0l0,4.362c0,0.277,0.026,0.533,0.081,0.768c0.056,0.246,0.154,0.464,0.298,0.645c0.146,0.186,0.345,0.332,0.595,0.436c0.241,0.098,0.555,0.146,0.93,0.146l0.896,0c0.292,0,0.539,-0.054,0.731,-0.166c0.154,-0.089,0.341,-0.281,0.341,-0.693c0,-0.338,-0.114,-0.578,-0.341,-0.709c-0.192,-0.109,-0.439,-0.168,-0.731,-0.168l-0.821,0c-0.138,0,-0.19,-0.019,-0.207,-0.024c-0.014,-0.034,-0.035,-0.103,-0.035,-0.231L397.801,238.493l1.465,0c0.295,0,0.541,-0.057,0.734,-0.168c0.152,-0.09,0.34,-0.28,0.34,-0.692C400.336,237.293,400.223,237.054,399.996,236.925z"/>
    <path  fill="#8C8C8C" d="M391.541,236.755l-1.191,0c-0.292,0,-0.538,0.059,-0.731,0.169c-0.226,0.129,-0.341,0.368,-0.341,0.708c0,0.412,0.188,0.604,0.341,0.691c0.193,0.113,0.439,0.168,0.731,0.168l0.544,0l0,5.362c0,0.293,0.057,0.539,0.167,0.73c0.131,0.227,0.367,0.341,0.708,0.341c0.411,0,0.604,-0.187,0.692,-0.341c0.111,-0.191,0.168,-0.438,0.168,-0.73L392.629,237.843c0,-0.386,-0.084,-0.656,-0.256,-0.83C392.198,236.841,391.928,236.755,391.541,236.755z"/>
    <path  fill="#8C8C8C" d="M387.706,236.925c-0.193,-0.111,-0.44,-0.169,-0.732,-0.169l-0.604,0c-0.25,0,-0.498,0.063,-0.734,0.187c-0.226,0.119,-0.433,0.271,-0.616,0.453l-0.644,0.604l0,-0.247c0,-0.291,-0.055,-0.538,-0.168,-0.729c-0.128,-0.228,-0.368,-0.34,-0.707,-0.34c-0.41,0,-0.604,0.184,-0.693,0.34c-0.11,0.191,-0.167,0.438,-0.167,0.729l0,4.801c-0.475,0.293,-0.791,0.816,-0.791,1.412c0,0.917,0.745,1.661,1.658,1.661c0.916,0,1.66,-0.744,1.66,-1.661c0,-0.596,-0.317,-1.119,-0.792,-1.412l0,-2.21l1.738,-1.564c0.1,-0.09,0.199,-0.164,0.297,-0.217c0.084,-0.045,0.174,-0.067,0.274,-0.067l0.288,0c0.292,0,0.539,-0.056,0.732,-0.169c0.155,-0.088,0.339,-0.279,0.339,-0.691C388.046,237.293,387.931,237.054,387.706,236.925zM383.507,244.568c-0.332,0,-0.603,-0.271,-0.603,-0.604c0,-0.333,0.271,-0.604,0.603,-0.604c0.333,0,0.604,0.271,0.604,0.604C384.111,244.299,383.84,244.568,383.507,244.568z"/>
    <path  fill="#8C8C8C" d="M380.99,233.406c-0.193,-0.111,-0.44,-0.167,-0.731,-0.167l-0.59,0c-0.2,0,-0.389,0.004,-0.562,0.016c-0.176,0.009,-0.345,0.035,-0.506,0.07c-0.168,0.041,-0.336,0.109,-0.496,0.202c-0.158,0.093,-0.319,0.222,-0.48,0.382c-0.334,0.314,-0.554,0.656,-0.652,1.017c-0.094,0.348,-0.143,0.735,-0.143,1.151l0,0.678l-0.483,0c-0.292,0,-0.539,0.059,-0.73,0.169c-0.227,0.13,-0.342,0.369,-0.342,0.708c0,0.412,0.185,0.604,0.341,0.693c0.191,0.111,0.438,0.166,0.73,0.166l0.483,0l0,5.362c0,0.293,0.057,0.539,0.167,0.73c0.13,0.227,0.367,0.341,0.708,0.341c0.411,0,0.603,-0.187,0.692,-0.341c0.111,-0.191,0.168,-0.438,0.168,-0.73l0,-5.36l0.92,0c0.293,0,0.54,-0.057,0.732,-0.168c0.155,-0.09,0.34,-0.28,0.34,-0.692c0,-0.34,-0.114,-0.579,-0.34,-0.708c-0.189,-0.111,-0.436,-0.17,-0.729,-0.17l-0.92,0l0,-0.678c0,-0.218,0.019,-0.41,0.056,-0.571c0.032,-0.141,0.103,-0.261,0.218,-0.367l0.002,-0.004l0.002,-0.002c0.082,-0.082,0.176,-0.126,0.29,-0.136c0.15,-0.015,0.339,-0.022,0.564,-0.022l0.56,0c0.291,0,0.539,-0.058,0.731,-0.168c0.154,-0.088,0.339,-0.281,0.339,-0.693C381.33,233.775,381.215,233.536,380.99,233.406z"/>
    <path  fill="#8C8C8C" d="M432.983,237.023c-0.089,-0.156,-0.282,-0.34,-0.693,-0.34c-0.339,0,-0.578,0.113,-0.707,0.34c-0.078,0.133,-0.127,0.293,-0.152,0.477l-0.021,-0.021c-0.216,-0.236,-0.466,-0.42,-0.747,-0.539c-0.277,-0.119,-0.563,-0.183,-0.849,-0.183l-0.709,0c-0.249,0,-0.466,0.015,-0.64,0.041c-0.182,0.026,-0.352,0.074,-0.51,0.14c-0.158,0.066,-0.313,0.15,-0.459,0.254c-0.139,0.097,-0.303,0.226,-0.486,0.377c-0.188,0.156,-0.342,0.302,-0.463,0.434c-0.127,0.141,-0.23,0.293,-0.306,0.455c-0.069,0.16,-0.122,0.337,-0.147,0.523c-0.026,0.178,-0.041,0.391,-0.041,0.631l0,2.386c0,0.24,0.015,0.451,0.041,0.631c0.025,0.188,0.078,0.361,0.147,0.521c0.074,0.164,0.179,0.318,0.306,0.457c0.119,0.129,0.274,0.274,0.463,0.433c0.186,0.153,0.35,0.28,0.486,0.379c0.146,0.103,0.299,0.188,0.459,0.254c0.158,0.065,0.329,0.112,0.51,0.14c0.174,0.026,0.389,0.039,0.64,0.039l0.709,0c0.298,0,0.591,-0.066,0.87,-0.199c0.244,-0.114,0.492,-0.291,0.73,-0.523l0,1.434c0,0.18,-0.025,0.334,-0.072,0.465c-0.043,0.119,-0.159,0.258,-0.344,0.406c-0.154,0.127,-0.309,0.217,-0.457,0.264c-0.15,0.049,-0.341,0.074,-0.563,0.074l-2.203,0c-0.293,0,-0.538,0.055,-0.732,0.166c-0.152,0.088,-0.34,0.282,-0.34,0.692c0,0.341,0.115,0.579,0.34,0.71c0.194,0.109,0.439,0.167,0.732,0.167l2.326,0c0.247,0,0.463,-0.015,0.638,-0.041c0.179,-0.026,0.351,-0.073,0.513,-0.14c0.153,-0.064,0.31,-0.15,0.455,-0.254c0.143,-0.101,0.305,-0.227,0.487,-0.379c0.185,-0.153,0.343,-0.299,0.463,-0.431c0.128,-0.141,0.229,-0.294,0.304,-0.456c0.071,-0.162,0.123,-0.338,0.148,-0.523c0.025,-0.182,0.041,-0.393,0.041,-0.631l0,-7.898C433.15,237.461,433.096,237.214,432.983,237.023zM431.414,241.483c0,0.188,-0.062,0.35,-0.188,0.49c-0.15,0.172,-0.394,0.403,-0.716,0.686l-0.002,0.003l-0.002,0.004c-0.139,0.13,-0.291,0.237,-0.453,0.325c-0.148,0.082,-0.325,0.121,-0.526,0.121L429.226,243.112c-0.222,0,-0.41,-0.021,-0.563,-0.072c-0.148,-0.049,-0.301,-0.137,-0.453,-0.264c-0.231,-0.186,-0.315,-0.322,-0.346,-0.404c-0.049,-0.131,-0.072,-0.285,-0.072,-0.465l0,-2.206c0,-0.18,0.023,-0.336,0.072,-0.467c0.029,-0.082,0.113,-0.217,0.346,-0.403c0.152,-0.127,0.305,-0.216,0.453,-0.265c0.153,-0.049,0.342,-0.072,0.563,-0.072l0.301,0c0.212,0,0.388,0.037,0.526,0.113c0.152,0.082,0.308,0.191,0.457,0.324c0.322,0.293,0.564,0.529,0.716,0.7c0.128,0.146,0.188,0.304,0.188,0.492L431.414,241.483z"/>
    <path  fill="#8C8C8C" d="M413.004,232.263c-0.914,0,-1.66,0.745,-1.66,1.66c0,0.916,0.746,1.66,1.66,1.66s1.66,-0.744,1.66,-1.66C414.664,233.008,413.918,232.263,413.004,232.263zM413.004,234.526c-0.332,0,-0.604,-0.27,-0.604,-0.603s0.271,-0.603,0.604,-0.603s0.604,0.27,0.604,0.603C413.608,234.256,413.336,234.526,413.004,234.526z"/>
    <path  fill="#8C8C8C" d="M423.69,242.531l-0.107,-3.419c-0.011,-0.178,-0.021,-0.338,-0.031,-0.489c-0.01,-0.162,-0.037,-0.322,-0.082,-0.476c-0.045,-0.158,-0.11,-0.309,-0.198,-0.453c-0.093,-0.146,-0.216,-0.289,-0.37,-0.42c-0.225,-0.192,-0.443,-0.334,-0.646,-0.416c-0.207,-0.084,-0.461,-0.127,-0.754,-0.127l-1.012,0c-0.259,0,-0.501,0.058,-0.716,0.164c-0.197,0.098,-0.39,0.203,-0.572,0.315l-0.003,0.002l-0.003,0.003l-0.837,0.555l0,-0.041c0,-0.291,-0.057,-0.539,-0.168,-0.733c-0.129,-0.226,-0.367,-0.339,-0.707,-0.339c-0.411,0,-0.604,0.185,-0.693,0.339c-0.109,0.194,-0.168,0.438,-0.168,0.733l0,6.099c0,0.295,0.059,0.539,0.168,0.734c0.09,0.153,0.282,0.338,0.693,0.338c0.34,0,0.578,-0.114,0.707,-0.338c0.111,-0.195,0.168,-0.439,0.168,-0.734L418.359,239.793l1.953,-1.215c0.04,-0.024,0.082,-0.048,0.121,-0.063c0.031,-0.016,0.07,-0.025,0.115,-0.031c0.049,-0.012,0.117,-0.016,0.195,-0.016l0.362,0c0.188,0,0.334,0.021,0.435,0.059c0.082,0.029,0.143,0.076,0.18,0.143c0.05,0.078,0.08,0.18,0.098,0.303c0.02,0.139,0.034,0.309,0.045,0.504l0.096,3.097c-0.457,0.297,-0.762,0.811,-0.762,1.394c0,0.917,0.746,1.661,1.66,1.661c0.916,0,1.66,-0.744,1.66,-1.661C424.516,243.356,424.183,242.818,423.69,242.531zM422.856,244.568c-0.334,0,-0.602,-0.271,-0.602,-0.604c0,-0.333,0.268,-0.604,0.602,-0.604c0.333,0,0.604,0.271,0.604,0.604C423.461,244.299,423.189,244.568,422.856,244.568z"/>
    <path  fill="#8C8C8C" d="M413.067,236.755l-1.193,0c-0.293,0,-0.539,0.059,-0.731,0.169c-0.226,0.129,-0.341,0.368,-0.341,0.708c0,0.412,0.186,0.604,0.341,0.691c0.192,0.113,0.438,0.168,0.731,0.168l0.545,0l0,5.362c0,0.293,0.055,0.539,0.168,0.73c0.127,0.227,0.365,0.341,0.707,0.341c0.41,0,0.604,-0.187,0.691,-0.341c0.111,-0.191,0.17,-0.438,0.17,-0.73L414.155,237.843c0,-0.386,-0.085,-0.656,-0.259,-0.83C413.724,236.841,413.451,236.755,413.067,236.755z"/>
   </g>
  </g>
 </g>
 <g partID="855175630">
  <g transform="translate(0,15.6114)">
   <g id="schematic">
    <rect x="14.85" stroke-width="0.9" y="14.85" stroke="#000000" fill="#FFFFFF" height="135.9" width="78.3" stroke-linecap="round" class="interior rect"/>
    <line stroke-width="0.699999" x1="93.2499" stroke="#787878" fill="none" y2="28.8" stroke-linecap="round" y1="28.8" id="connector61pin" x2="107.65" class="pin"/>
    <text x="91.8499" font-family="'Droid Sans'" stroke-width="0" y="29.4999" stroke="none" fill="#8c8c8c" text-anchor="end" font-size="3.49999" class="text">D0/RX</text>
    <g x="107.65" stroke-width="0" y="28.4499" stroke="none" fill="none" height="0.699999" width="0.699999" id="connector61terminal" class="terminal"/>
    <line stroke-width="0.699999" x1="93.2499" stroke="#787878" fill="none" y2="36" stroke-linecap="round" y1="36" id="connector62pin" x2="107.65" class="pin"/>
    <text x="91.8499" font-family="'Droid Sans'" stroke-width="0" y="36.6999" stroke="none" fill="#8c8c8c" text-anchor="end" font-size="3.49999" class="text">D1/TX</text>
    <g x="107.65" stroke-width="0" y="35.6499" stroke="none" fill="none" height="0.699999" width="0.699999" id="connector62terminal" class="terminal"/>
    <line stroke-width="0.699999" x1="93.2499" stroke="#787878" fill="none" y2="43.2" stroke-linecap="round" y1="43.2" id="connector63pin" x2="107.65" class="pin"/>
    <text x="91.8499" font-family="'Droid Sans'" stroke-width="0" y="43.8999" stroke="none" fill="#8c8c8c" text-anchor="end" font-size="3.49999" class="text">D2</text>
    <g x="107.65" stroke-width="0" y="42.8499" stroke="none" fill="none" height="0.699999" width="0.699999" id="connector63terminal" class="terminal"/>
    <line stroke-width="0.699999" x1="93.2499" stroke="#787878" fill="none" y2="50.4" stroke-linecap="round" y1="50.4" id="connector64pin" x2="107.65" class="pin"/>
    <text x="91.8499" font-family="'Droid Sans'" stroke-width="0" y="51.0999" stroke="none" fill="#8c8c8c" text-anchor="end" font-size="3.49999" class="text">D3 PWM</text>
    <g x="107.65" stroke-width="0" y="50.0499" stroke="none" fill="none" height="0.699999" width="0.699999" id="connector64terminal" class="terminal"/>
    <line stroke-width="0.699999" x1="93.2499" stroke="#787878" fill="none" y2="57.6" stroke-linecap="round" y1="57.6" id="connector65pin" x2="107.65" class="pin"/>
    <text x="91.8499" font-family="'Droid Sans'" stroke-width="0" y="58.2999" stroke="none" fill="#8c8c8c" text-anchor="end" font-size="3.49999" class="text">D4</text>
    <g x="107.65" stroke-width="0" y="57.2499" stroke="none" fill="none" height="0.699999" width="0.699999" id="connector65terminal" class="terminal"/>
    <line stroke-width="0.699999" x1="93.2499" stroke="#787878" fill="none" y2="64.8" stroke-linecap="round" y1="64.8" id="connector66pin" x2="107.65" class="pin"/>
    <text x="91.8499" font-family="'Droid Sans'" stroke-width="0" y="65.4999" stroke="none" fill="#8c8c8c" text-anchor="end" font-size="3.49999" class="text">D5 PWM</text>
    <g x="107.65" stroke-width="0" y="64.4499" stroke="none" fill="none" height="0.699999" width="0.699999" id="connector66terminal" class="terminal"/>
    <line stroke-width="0.699999" x1="93.2499" stroke="#787878" fill="none" y2="72" stroke-linecap="round" y1="72" id="connector67pin" x2="107.65" class="pin"/>
    <text x="91.8499" font-family="'Droid Sans'" stroke-width="0" y="72.6999" stroke="none" fill="#8c8c8c" text-anchor="end" font-size="3.49999" class="text">D6 PWM</text>
    <g x="107.65" stroke-width="0" y="71.6499" stroke="none" fill="none" height="0.699999" width="0.699999" id="connector67terminal" class="terminal"/>
    <line stroke-width="0.699999" x1="93.2499" stroke="#787878" fill="none" y2="79.2" stroke-linecap="round" y1="79.2" id="connector68pin" x2="107.65" class="pin"/>
    <text x="91.8499" font-family="'Droid Sans'" stroke-width="0" y="79.8999" stroke="none" fill="#8c8c8c" text-anchor="end" font-size="3.49999" class="text">D7</text>
    <g x="107.65" stroke-width="0" y="78.8499" stroke="none" fill="none" height="0.699999" width="0.699999" id="connector68terminal" class="terminal"/>
    <line stroke-width="0.699999" x1="93.2499" stroke="#787878" fill="none" y2="86.4" stroke-linecap="round" y1="86.4" id="connector51pin" x2="107.65" class="pin"/>
    <text x="91.8499" font-family="'Droid Sans'" stroke-width="0" y="87.0999" stroke="none" fill="#8c8c8c" text-anchor="end" font-size="3.49999" class="text">D8</text>
    <g x="107.65" stroke-width="0" y="86.0499" stroke="none" fill="none" height="0.699999" width="0.699999" id="connector51terminal" class="terminal"/>
    <line stroke-width="0.699999" x1="93.2499" stroke="#787878" fill="none" y2="93.6" stroke-linecap="round" y1="93.6" id="connector52pin" x2="107.65" class="pin"/>
    <text x="91.8499" font-family="'Droid Sans'" stroke-width="0" y="94.2999" stroke="none" fill="#8c8c8c" text-anchor="end" font-size="3.49999" class="text">D9 PWM</text>
    <g x="107.65" stroke-width="0" y="93.2499" stroke="none" fill="none" height="0.699999" width="0.699999" id="connector52terminal" class="terminal"/>
    <line stroke-width="0.699999" x1="93.2499" stroke="#787878" fill="none" y2="100.8" stroke-linecap="round" y1="100.8" id="connector53pin" x2="107.65" class="pin"/>
    <text x="91.8499" font-family="'Droid Sans'" stroke-width="0" y="101.5" stroke="none" fill="#8c8c8c" text-anchor="end" font-size="3.49999" class="text">D10 PWM/SS</text>
    <g x="107.65" stroke-width="0" y="100.45" stroke="none" fill="none" height="0.699999" width="0.699999" id="connector53terminal" class="terminal"/>
    <line stroke-width="0.699999" x1="93.2499" stroke="#787878" fill="none" y2="108" stroke-linecap="round" y1="108" id="connector54pin" x2="107.65" class="pin"/>
    <text x="91.8499" font-family="'Droid Sans'" stroke-width="0" y="108.7" stroke="none" fill="#8c8c8c" text-anchor="end" font-size="3.49999" class="text">D11 PWM/MOSI</text>
    <g x="107.65" stroke-width="0" y="107.65" stroke="none" fill="none" height="0.699999" width="0.699999" id="connector54terminal" class="terminal"/>
    <line stroke-width="0.699999" x1="93.2499" stroke="#787878" fill="none" y2="115.2" stroke-linecap="round" y1="115.2" id="connector55pin" x2="107.65" class="pin"/>
    <text x="91.8499" font-family="'Droid Sans'" stroke-width="0" y="115.9" stroke="none" fill="#8c8c8c" text-anchor="end" font-size="3.49999" class="text">D12/MISO</text>
    <g x="107.65" stroke-width="0" y="114.85" stroke="none" fill="none" height="0.699999" width="0.699999" id="connector55terminal" class="terminal"/>
    <line stroke-width="0" x1="93.2499" stroke="none" fill="none" y2="122.4" stroke-linecap="round" y1="122.4" id="connector41pin" x2="107.65" class="pin"/>
    <rect x="107.65" stroke-width="0" y="122.05" stroke="none" fill="none" height="0.699999" width="0.699999" id="connector41terminal" class="terminal"/>
    <line stroke-width="0.699999" x1="93.2499" stroke="#787878" fill="none" y2="122.4" stroke-linecap="round" y1="122.4" id="connector56pin" x2="107.65" class="pin"/>
    <text x="91.8499" font-family="'Droid Sans'" stroke-width="0" y="123.1" stroke="none" fill="#8c8c8c" text-anchor="end" font-size="3.49999" class="text">D13/SCK</text>
    <g x="107.65" stroke-width="0" y="122.05" stroke="none" fill="none" height="0.699999" width="0.699999" id="connector56terminal" class="terminal"/>
    <line stroke-width="0" x1="0.349999" stroke="none" fill="none" y2="28.8" stroke-linecap="round" y1="28.8" id="connector43pin" x2="14.75" class="pin"/>
    <rect x="-0.349999" stroke-width="0" y="28.4499" stroke="none" fill="none" height="0.699999" width="0.699999" id="connector43terminal" class="terminal"/>
    <line stroke-width="0.699999" x1="0.349999" stroke="#787878" fill="none" y2="28.8" stroke-linecap="round" y1="28.8" id="connector85pin" x2="14.75" class="pin"/>
    <text x="16.15" font-family="'Droid Sans'" stroke-width="0" y="29.4999" stroke="none" fill="#8c8c8c" text-anchor="start" font-size="3.49999" class="text">RESET</text>
    <g x="-0.349999" stroke-width="0" y="28.4499" stroke="none" fill="none" height="0.699999" width="0.699999" id="connector85terminal" class="terminal"/>
    <line stroke-width="0.699999" x1="0.349999" stroke="#787878" fill="none" y2="36" stroke-linecap="round" y1="36" id="connector49pin" x2="14.75" class="pin"/>
    <text x="16.15" font-family="'Droid Sans'" stroke-width="0" y="36.6999" stroke="none" fill="#8c8c8c" text-anchor="start" font-size="3.49999" class="text">RESET2</text>
    <rect x="-0.349999" stroke-width="0" y="35.6499" stroke="none" fill="none" height="0.699999" width="0.699999" id="connector49terminal" class="terminal"/>
    <line stroke-width="0.699999" x1="0.349999" stroke="#787878" fill="none" y2="43.2" stroke-linecap="round" y1="43.2" id="connector58pin" x2="14.75" class="pin"/>
    <text x="16.15" font-family="'Droid Sans'" stroke-width="0" y="43.8999" stroke="none" fill="#8c8c8c" text-anchor="start" font-size="3.49999" class="text">AREF</text>
    <g x="-0.349999" stroke-width="0" y="42.8499" stroke="none" fill="none" height="0.699999" width="0.699999" id="connector58terminal" class="terminal"/>
    <line stroke-width="0.699999" x1="0.349999" stroke="#787878" fill="none" y2="50.4" stroke-linecap="round" y1="50.4" id="connector84pin" x2="14.75" class="pin"/>
    <text x="16.15" font-family="'Droid Sans'" stroke-width="0" y="51.0999" stroke="none" fill="#8c8c8c" text-anchor="start" font-size="3.49999" class="text">ioref</text>
    <g x="-0.349999" stroke-width="0" y="50.0499" stroke="none" fill="none" height="0.699999" width="0.699999" id="connector84terminal" class="terminal"/>
    <line stroke-width="0.699999" x1="0.349999" stroke="#787878" fill="none" y2="64.8" stroke-linecap="round" y1="64.8" id="connector0pin" x2="14.75" class="pin"/>
    <text x="16.15" font-family="'Droid Sans'" stroke-width="0" y="65.4999" stroke="none" fill="#8c8c8c" text-anchor="start" font-size="3.49999" class="text">A0</text>
    <g x="-0.349999" stroke-width="0" y="64.4499" stroke="none" fill="none" height="0.699999" width="0.699999" id="connector0terminal" class="terminal"/>
    <line stroke-width="0.699999" x1="0.349999" stroke="#787878" fill="none" y2="72" stroke-linecap="round" y1="72" id="connector1pin" x2="14.75" class="pin"/>
    <text x="16.15" font-family="'Droid Sans'" stroke-width="0" y="72.6999" stroke="none" fill="#8c8c8c" text-anchor="start" font-size="3.49999" class="text">A1</text>
    <g x="-0.349999" stroke-width="0" y="71.6499" stroke="none" fill="none" height="0.699999" width="0.699999" id="connector1terminal" class="terminal"/>
    <line stroke-width="0.699999" x1="0.349999" stroke="#787878" fill="none" y2="79.2" stroke-linecap="round" y1="79.2" id="connector2pin" x2="14.75" class="pin"/>
    <text x="16.15" font-family="'Droid Sans'" stroke-width="0" y="79.8999" stroke="none" fill="#8c8c8c" text-anchor="start" font-size="3.49999" class="text">A2</text>
    <g x="-0.349999" stroke-width="0" y="78.8499" stroke="none" fill="none" height="0.699999" width="0.699999" id="connector2terminal" class="terminal"/>
    <line stroke-width="0.699999" x1="0.349999" stroke="#787878" fill="none" y2="86.4" stroke-linecap="round" y1="86.4" id="connector3pin" x2="14.75" class="pin"/>
    <text x="16.15" font-family="'Droid Sans'" stroke-width="0" y="87.0999" stroke="none" fill="#8c8c8c" text-anchor="start" font-size="3.49999" class="text">A3</text>
    <g x="-0.349999" stroke-width="0" y="86.0499" stroke="none" fill="none" height="0.699999" width="0.699999" id="connector3terminal" class="terminal"/>
    <line stroke-width="0" x1="0.349999" stroke="none" fill="none" y2="93.6" stroke-linecap="round" y1="93.6" id="connector48pin" x2="14.75" class="pin"/>
    <rect x="-0.349999" stroke-width="0" y="93.2499" stroke="none" fill="none" height="0.699999" width="0.699999" id="connector48terminal" class="terminal"/>
    <line stroke-width="0" x1="0.349999" stroke="none" fill="none" y2="93.6" stroke-linecap="round" y1="93.6" id="connector45pin" x2="14.75" class="pin"/>
    <rect x="-0.349999" stroke-width="0" y="93.2499" stroke="none" fill="none" height="0.699999" width="0.699999" id="connector45terminal" class="terminal"/>
    <line stroke-width="0" x1="0.349999" stroke="none" fill="none" y2="93.6" stroke-linecap="round" y1="93.6" id="connector4pin" x2="14.75" class="pin"/>
    <g x="-0.349999" stroke-width="0" y="93.2499" stroke="none" fill="none" height="0.699999" width="0.699999" id="connector4terminal" class="terminal"/>
    <line stroke-width="0" x1="0.349999" stroke="none" fill="none" y2="93.6" stroke-linecap="round" y1="93.6" id="connector39pin" x2="14.75" class="pin"/>
    <rect x="-0.349999" stroke-width="0" y="93.2499" stroke="none" fill="none" height="0.699999" width="0.699999" id="connector39terminal" class="terminal"/>
    <line stroke-width="0" x1="0.349999" stroke="none" fill="none" y2="93.6" stroke-linecap="round" y1="93.6" id="connector47pin" x2="14.75" class="pin"/>
    <rect x="-0.349999" stroke-width="0" y="93.2499" stroke="none" fill="none" height="0.699999" width="0.699999" id="connector47terminal" class="terminal"/>
    <line stroke-width="0" x1="0.349999" stroke="none" fill="none" y2="93.6" stroke-linecap="round" y1="93.6" id="connector42pin" x2="14.75" class="pin"/>
    <rect x="-0.349999" stroke-width="0" y="93.2499" stroke="none" fill="none" height="0.699999" width="0.699999" id="connector42terminal" class="terminal"/>
    <line stroke-width="0.699999" x1="0.349999" stroke="#787878" fill="none" y2="93.6" stroke-linecap="round" y1="93.6" id="connector59pin" x2="14.75" class="pin"/>
    <text x="16.15" font-family="'Droid Sans'" stroke-width="0" y="94.2999" stroke="none" fill="#8c8c8c" text-anchor="start" font-size="3.49999" class="text">A4/SDA</text>
    <g x="-0.349999" stroke-width="0" y="93.2499" stroke="none" fill="none" height="0.699999" width="0.699999" id="connector59terminal" class="terminal"/>
    <line stroke-width="0" x1="0.349999" stroke="none" fill="none" y2="100.8" stroke-linecap="round" y1="100.8" id="connector5pin" x2="14.75" class="pin"/>
    <g x="-0.349999" stroke-width="0" y="100.45" stroke="none" fill="none" height="0.699999" width="0.699999" id="connector5terminal" class="terminal"/>
    <line stroke-width="0.699999" x1="0.349999" stroke="#787878" fill="none" y2="100.8" stroke-linecap="round" y1="100.8" id="connector60pin" x2="14.75" class="pin"/>
    <text x="16.15" font-family="'Droid Sans'" stroke-width="0" y="101.5" stroke="none" fill="#8c8c8c" text-anchor="start" font-size="3.49999" class="text">A5/SCL</text>
    <g x="-0.349999" stroke-width="0" y="100.45" stroke="none" fill="none" height="0.699999" width="0.699999" id="connector60terminal" class="terminal"/>
    <line stroke-width="0.699999" x1="0.349999" stroke="#787878" fill="none" y2="136.8" stroke-linecap="round" y1="136.8" id="connector91pin" x2="14.75" class="pin"/>
    <text x="16.15" font-family="'Droid Sans'" stroke-width="0" y="137.5" stroke="none" fill="#8c8c8c" text-anchor="start" font-size="3.49999" class="text">N/C</text>
    <g x="-0.349999" stroke-width="0" y="136.45" stroke="none" fill="none" height="0.699999" width="0.699999" id="connector91terminal" class="terminal"/>
    <line stroke-width="0" x1="57.6" stroke="none" fill="none" y2="165.25" stroke-linecap="round" y1="150.85" id="connector88pin" x2="57.6" class="pin"/>
    <g x="57.2499" stroke-width="0" y="165.25" stroke="none" fill="none" height="0.699999" width="0.699999" id="connector88terminal" class="terminal"/>
    <line stroke-width="0" x1="57.6" stroke="none" fill="none" y2="165.25" stroke-linecap="round" y1="150.85" id="connector57pin" x2="57.6" class="pin"/>
    <g x="57.2499" stroke-width="0" y="165.25" stroke="none" fill="none" height="0.699999" width="0.699999" id="connector57terminal" class="terminal"/>
    <line stroke-width="0" x1="57.6" stroke="none" fill="none" y2="165.25" stroke-linecap="round" y1="150.85" id="connector44pin" x2="57.6" class="pin"/>
    <rect x="57.2499" stroke-width="0" y="165.25" stroke="none" fill="none" height="0.699999" width="0.699999" id="connector44terminal" class="terminal"/>
    <line stroke-width="0" x1="57.6" stroke="none" fill="none" y2="165.25" stroke-linecap="round" y1="150.85" id="connector50pin" x2="57.6" class="pin"/>
    <rect x="57.2499" stroke-width="0" y="165.25" stroke="none" fill="none" height="0.699999" width="0.699999" id="connector50terminal" class="terminal"/>
    <line stroke-width="0.699999" x1="57.6" stroke="#787878" fill="none" y2="165.25" stroke-linecap="round" y1="150.85" id="connector89pin" x2="57.6" class="pin"/>
    <g transform="matrix(1, 0, 0, 1, 58.2999, 149.45)">
     <g>
      <g transform="rotate(270)">
       <g>
        <text x="0" font-family="'Droid Sans'" stroke-width="0" y="0" stroke="none" fill="#8c8c8c" text-anchor="start" font-size="3.49999" class="text">GND</text>
       </g>
      </g>
     </g>
    </g>
    <g x="57.2499" stroke-width="0" y="165.25" stroke="none" fill="none" height="0.699999" width="0.699999" id="connector89terminal" class="terminal"/>
    <line stroke-width="0.699999" x1="36" stroke="#787878" fill="none" y2="14.75" stroke-linecap="round" y1="0.349999" id="connector86pin" x2="36" class="pin"/>
    <g transform="matrix(1, 0, 0, 1, 36.6999, 16.15)">
     <g>
      <g transform="rotate(270)">
       <g>
        <text x="0" font-family="'Droid Sans'" stroke-width="0" y="0" stroke="none" fill="#8c8c8c" text-anchor="end" font-size="3.49999" class="text">3V3</text>
       </g>
      </g>
     </g>
    </g>
    <g x="35.6499" stroke-width="0" y="-0.349999" stroke="none" fill="none" height="0.699999" width="0.699999" id="connector86terminal" class="terminal"/>
    <line stroke-width="0" x1="50.4" stroke="none" fill="none" y2="14.75" stroke-linecap="round" y1="0.349999" id="connector40pin" x2="50.4" class="pin"/>
    <rect x="50.0499" stroke-width="0" y="-0.349999" stroke="none" fill="none" height="0.699999" width="0.699999" id="connector40terminal" class="terminal"/>
    <line stroke-width="0" x1="50.4" stroke="none" fill="none" y2="14.75" stroke-linecap="round" y1="0.349999" id="connector46pin" x2="50.4" class="pin"/>
    <rect x="50.0499" stroke-width="0" y="-0.349999" stroke="none" fill="none" height="0.699999" width="0.699999" id="connector46terminal" class="terminal"/>
    <line stroke-width="0.699999" x1="50.4" stroke="#787878" fill="none" y2="14.75" stroke-linecap="round" y1="0.349999" id="connector87pin" x2="50.4" class="pin"/>
    <g transform="matrix(1, 0, 0, 1, 51.0999, 16.15)">
     <g>
      <g transform="rotate(270)">
       <g>
        <text x="0" font-family="'Droid Sans'" stroke-width="0" y="0" stroke="none" fill="#8c8c8c" text-anchor="end" font-size="3.49999" class="text">5V</text>
       </g>
      </g>
     </g>
    </g>
    <g x="50.0499" stroke-width="0" y="-0.349999" stroke="none" fill="none" height="0.699999" width="0.699999" id="connector87terminal" class="terminal"/>
    <line stroke-width="0.699999" x1="64.8" stroke="#787878" fill="none" y2="14.75" stroke-linecap="round" y1="0.349999" id="connector90pin" x2="64.8" class="pin"/>
    <g transform="matrix(1, 0, 0, 1, 65.4999, 16.15)">
     <g>
      <g transform="rotate(270)">
       <g>
        <text x="0" font-family="'Droid Sans'" stroke-width="0" y="0" stroke="none" fill="#8c8c8c" text-anchor="end" font-size="3.49999" class="text">VIN</text>
       </g>
      </g>
     </g>
    </g>
    <g x="64.4499" stroke-width="0" y="-0.349999" stroke="none" fill="none" height="0.699999" width="0.699999" id="connector90terminal" class="terminal"/>
    <text x="54.4501" font-family="'Droid Sans'" stroke-width="0" y="76.4498" stroke="none" fill="#000000" text-anchor="middle" id="label" font-size="4.25001" class="text">Arduino</text>
    <text x="54.4501" font-family="'Droid Sans'" stroke-width="0" y="80.9833" stroke="none" fill="#000000" text-anchor="middle" id="label" font-size="4.25001" class="text">Uno</text>
    <text x="54.4501" font-family="'Droid Sans'" stroke-width="0" y="85.5167" stroke="none" fill="#000000" text-anchor="middle" id="label" font-size="4.25001" class="text">(Rev3)</text>
   </g>
  </g>
 </g>
 <g partID="855426000">
  <g transform="translate(126.504,224.762)">
   <g transform="matrix(0,-1,1,0,0,0)">
    <g  id="schematic">
     <line  stroke-width="0.432002" x1="7.55002" stroke="#000000" y2="0.216" stroke-linecap="round" y1="3.096" x2="8.63003" class="other"/>
     <line  stroke-width="0.432002" x1="8.63003" stroke="#000000" y2="5.976" stroke-linecap="round" y1="0.216" x2="10.43" class="other"/>
     <line  stroke-width="0.432002" x1="10.43" stroke="#000000" y2="0.216" stroke-linecap="round" y1="5.976" x2="12.23" class="other"/>
     <line  stroke-width="0.432002" x1="12.23" stroke="#000000" y2="5.976" stroke-linecap="round" y1="0.216" x2="14.03" class="other"/>
     <line  stroke-width="0.432002" x1="14.03" stroke="#000000" y2="0.216" stroke-linecap="round" y1="5.976" x2="15.8301" class="other"/>
     <line  stroke-width="0.432002" x1="15.8301" stroke="#000000" y2="5.976" stroke-linecap="round" y1="0.216" x2="17.6301" class="other"/>
     <line  stroke-width="0.432002" x1="17.6301" stroke="#000000" y2="0.216" stroke-linecap="round" y1="5.976" x2="19.4301" class="other"/>
     <line  stroke-width="0.432002" x1="19.4301" stroke="#000000" y2="5.976" stroke-linecap="round" y1="0.216" x2="21.2301" class="other"/>
     <line  stroke-width="0.432002" x1="21.2301" stroke="#000000" y2="3.096" stroke-linecap="round" y1="5.976" x2="21.9501" class="other"/>
     <line  stroke-width="0.700001" x1="29.1502" stroke="#787878" y2="3.096" stroke-linecap="round" y1="3.096" id="connector1pin" x2="21.9501" class="pin" connectorname="2"/>
     <g x="29.1502"  stroke-width="0" y="3.096" stroke="none" fill="none" height="0.000283465" width="0.000283466" id="connector1terminal" class="terminal"/>
     <text x="25.5501" font-family="'Droid Sans'"  stroke-width="0" y="2.046" stroke="none" fill="#8c8c8c" text-anchor="middle" font-size="2.50001" class="text">2</text>
     <line  stroke-width="0.700001" x1="0.350001" stroke="#787878" y2="3.096" stroke-linecap="round" y1="3.096" id="connector0pin" x2="7.55002" class="pin" connectorname="1"/>
     <g x="0.350001"  stroke-width="0" y="3.096" stroke="none" fill="none" height="0.000283465" width="0.000283466" id="connector0terminal" class="terminal"/>
     <text x="3.95001" font-family="'Droid Sans'"  stroke-width="0" y="2.046" stroke="none" fill="#8c8c8c" text-anchor="middle" font-size="2.50001" class="text">1</text>
    </g>
   </g>
  </g>
 </g>
 <g partID="855426430">
  <g transform="translate(256.104,224.762)">
   <g transform="matrix(0,-1,1,0,0,0)">
    <g  id="schematic">
     <line  stroke-width="0.432002" x1="7.55002" stroke="#000000" y2="0.216" stroke-linecap="round" y1="3.096" x2="8.63003" class="other"/>
     <line  stroke-width="0.432002" x1="8.63003" stroke="#000000" y2="5.976" stroke-linecap="round" y1="0.216" x2="10.43" class="other"/>
     <line  stroke-width="0.432002" x1="10.43" stroke="#000000" y2="0.216" stroke-linecap="round" y1="5.976" x2="12.23" class="other"/>
     <line  stroke-width="0.432002" x1="12.23" stroke="#000000" y2="5.976" stroke-linecap="round" y1="0.216" x2="14.03" class="other"/>
     <line  stroke-width="0.432002" x1="14.03" stroke="#000000" y2="0.216" stroke-linecap="round" y1="5.976" x2="15.8301" class="other"/>
     <line  stroke-width="0.432002" x1="15.8301" stroke="#000000" y2="5.976" stroke-linecap="round" y1="0.216" x2="17.6301" class="other"/>
     <line  stroke-width="0.432002" x1="17.6301" stroke="#000000" y2="0.216" stroke-linecap="round" y1="5.976" x2="19.4301" class="other"/>
     <line  stroke-width="0.432002" x1="19.4301" stroke="#000000" y2="5.976" stroke-linecap="round" y1="0.216" x2="21.2301" class="other"/>
     <line  stroke-width="0.432002" x1="21.2301" stroke="#000000" y2="3.096" stroke-linecap="round" y1="5.976" x2="21.9501" class="other"/>
     <line  stroke-width="0.700001" x1="29.1502" stroke="#787878" y2="3.096" stroke-linecap="round" y1="3.096" id="connector1pin" x2="21.9501" class="pin" connectorname="2"/>
     <g x="29.1502"  stroke-width="0" y="3.096" stroke="none" fill="none" height="0.000283465" width="0.000283466" id="connector1terminal" class="terminal"/>
     <text x="25.5501" font-family="'Droid Sans'"  stroke-width="0" y="2.046" stroke="none" fill="#8c8c8c" text-anchor="middle" font-size="2.50001" class="text">2</text>
     <line  stroke-width="0.700001" x1="0.350001" stroke="#787878" y2="3.096" stroke-linecap="round" y1="3.096" id="connector0pin" x2="7.55002" class="pin" connectorname="1"/>
     <g x="0.350001"  stroke-width="0" y="3.096" stroke="none" fill="none" height="0.000283465" width="0.000283466" id="connector0terminal" class="terminal"/>
     <text x="3.95001" font-family="'Droid Sans'"  stroke-width="0" y="2.046" stroke="none" fill="#8c8c8c" text-anchor="middle" font-size="2.50001" class="text">1</text>
    </g>
   </g>
  </g>
 </g>
 <g partID="855426150">
  <g transform="translate(175.896,224.762)">
   <g transform="matrix(0,-1,-1,0,0,0)">
    <g  id="schematic">
     <line  stroke-width="0.432002" x1="7.55002" stroke="#000000" y2="0.216" stroke-linecap="round" y1="3.096" x2="8.63003" class="other"/>
     <line  stroke-width="0.432002" x1="8.63003" stroke="#000000" y2="5.976" stroke-linecap="round" y1="0.216" x2="10.43" class="other"/>
     <line  stroke-width="0.432002" x1="10.43" stroke="#000000" y2="0.216" stroke-linecap="round" y1="5.976" x2="12.23" class="other"/>
     <line  stroke-width="0.432002" x1="12.23" stroke="#000000" y2="5.976" stroke-linecap="round" y1="0.216" x2="14.03" class="other"/>
     <line  stroke-width="0.432002" x1="14.03" stroke="#000000" y2="0.216" stroke-linecap="round" y1="5.976" x2="15.8301" class="other"/>
     <line  stroke-width="0.432002" x1="15.8301" stroke="#000000" y2="5.976" stroke-linecap="round" y1="0.216" x2="17.6301" class="other"/>
     <line  stroke-width="0.432002" x1="17.6301" stroke="#000000" y2="0.216" stroke-linecap="round" y1="5.976" x2="19.4301" class="other"/>
     <line  stroke-width="0.432002" x1="19.4301" stroke="#000000" y2="5.976" stroke-linecap="round" y1="0.216" x2="21.2301" class="other"/>
     <line  stroke-width="0.432002" x1="21.2301" stroke="#000000" y2="3.096" stroke-linecap="round" y1="5.976" x2="21.9501" class="other"/>
     <line  stroke-width="0.700001" x1="29.1502" stroke="#787878" y2="3.096" stroke-linecap="round" y1="3.096" id="connector1pin" x2="21.9501" class="pin" connectorname="2"/>
     <g x="29.1502"  stroke-width="0" y="3.096" stroke="none" fill="none" height="0.000283465" width="0.000283466" id="connector1terminal" class="terminal"/>
     <text x="25.5501" font-family="'Droid Sans'"  stroke-width="0" y="2.046" stroke="none" fill="#8c8c8c" text-anchor="middle" font-size="2.50001" class="text">2</text>
     <line  stroke-width="0.700001" x1="0.350001" stroke="#787878" y2="3.096" stroke-linecap="round" y1="3.096" id="connector0pin" x2="7.55002" class="pin" connectorname="1"/>
     <g x="0.350001"  stroke-width="0" y="3.096" stroke="none" fill="none" height="0.000283465" width="0.000283466" id="connector0terminal" class="terminal"/>
     <text x="3.95001" font-family="'Droid Sans'"  stroke-width="0" y="2.046" stroke="none" fill="#8c8c8c" text-anchor="middle" font-size="2.50001" class="text">1</text>
    </g>
   </g>
  </g>
 </g>
 <g partID="855426290">
  <g transform="translate(212.904,224.762)">
   <g transform="matrix(0,-1,1,0,0,0)">
    <g  id="schematic">
     <line  stroke-width="0.432002" x1="7.55002" stroke="#000000" y2="0.216" stroke-linecap="round" y1="3.096" x2="8.63003" class="other"/>
     <line  stroke-width="0.432002" x1="8.63003" stroke="#000000" y2="5.976" stroke-linecap="round" y1="0.216" x2="10.43" class="other"/>
     <line  stroke-width="0.432002" x1="10.43" stroke="#000000" y2="0.216" stroke-linecap="round" y1="5.976" x2="12.23" class="other"/>
     <line  stroke-width="0.432002" x1="12.23" stroke="#000000" y2="5.976" stroke-linecap="round" y1="0.216" x2="14.03" class="other"/>
     <line  stroke-width="0.432002" x1="14.03" stroke="#000000" y2="0.216" stroke-linecap="round" y1="5.976" x2="15.8301" class="other"/>
     <line  stroke-width="0.432002" x1="15.8301" stroke="#000000" y2="5.976" stroke-linecap="round" y1="0.216" x2="17.6301" class="other"/>
     <line  stroke-width="0.432002" x1="17.6301" stroke="#000000" y2="0.216" stroke-linecap="round" y1="5.976" x2="19.4301" class="other"/>
     <line  stroke-width="0.432002" x1="19.4301" stroke="#000000" y2="5.976" stroke-linecap="round" y1="0.216" x2="21.2301" class="other"/>
     <line  stroke-width="0.432002" x1="21.2301" stroke="#000000" y2="3.096" stroke-linecap="round" y1="5.976" x2="21.9501" class="other"/>
     <line  stroke-width="0.700001" x1="29.1502" stroke="#787878" y2="3.096" stroke-linecap="round" y1="3.096" id="connector1pin" x2="21.9501" class="pin" connectorname="2"/>
     <g x="29.1502"  stroke-width="0" y="3.096" stroke="none" fill="none" height="0.000283465" width="0.000283466" id="connector1terminal" class="terminal"/>
     <text x="25.5501" font-family="'Droid Sans'"  stroke-width="0" y="2.046" stroke="none" fill="#8c8c8c" text-anchor="middle" font-size="2.50001" class="text">2</text>
     <line  stroke-width="0.700001" x1="0.350001" stroke="#787878" y2="3.096" stroke-linecap="round" y1="3.096" id="connector0pin" x2="7.55002" class="pin" connectorname="1"/>
     <g x="0.350001"  stroke-width="0" y="3.096" stroke="none" fill="none" height="0.000283465" width="0.000283466" id="connector0terminal" class="terminal"/>
     <text x="3.95001" font-family="'Droid Sans'"  stroke-width="0" y="2.046" stroke="none" fill="#8c8c8c" text-anchor="middle" font-size="2.50001" class="text">1</text>
    </g>
   </g>
  </g>
 </g>
 <g partID="855426610">
  <g transform="translate(299.304,224.762)">
   <g transform="matrix(0,-1,1,0,0,0)">
    <g  id="schematic">
     <line  stroke-width="0.432002" x1="7.55002" stroke="#000000" y2="0.216" stroke-linecap="round" y1="3.096" x2="8.63003" class="other"/>
     <line  stroke-width="0.432002" x1="8.63003" stroke="#000000" y2="5.976" stroke-linecap="round" y1="0.216" x2="10.43" class="other"/>
     <line  stroke-width="0.432002" x1="10.43" stroke="#000000" y2="0.216" stroke-linecap="round" y1="5.976" x2="12.23" class="other"/>
     <line  stroke-width="0.432002" x1="12.23" stroke="#000000" y2="5.976" stroke-linecap="round" y1="0.216" x2="14.03" class="other"/>
     <line  stroke-width="0.432002" x1="14.03" stroke="#000000" y2="0.216" stroke-linecap="round" y1="5.976" x2="15.8301" class="other"/>
     <line  stroke-width="0.432002" x1="15.8301" stroke="#000000" y2="5.976" stroke-linecap="round" y1="0.216" x2="17.6301" class="other"/>
     <line  stroke-width="0.432002" x1="17.6301" stroke="#000000" y2="0.216" stroke-linecap="round" y1="5.976" x2="19.4301" class="other"/>
     <line  stroke-width="0.432002" x1="19.4301" stroke="#000000" y2="5.976" stroke-linecap="round" y1="0.216" x2="21.2301" class="other"/>
     <line  stroke-width="0.432002" x1="21.2301" stroke="#000000" y2="3.096" stroke-linecap="round" y1="5.976" x2="21.9501" class="other"/>
     <line  stroke-width="0.700001" x1="29.1502" stroke="#787878" y2="3.096" stroke-linecap="round" y1="3.096" id="connector1pin" x2="21.9501" class="pin" connectorname="2"/>
     <g x="29.1502"  stroke-width="0" y="3.096" stroke="none" fill="none" height="0.000283465" width="0.000283466" id="connector1terminal" class="terminal"/>
     <text x="25.5501" font-family="'Droid Sans'"  stroke-width="0" y="2.046" stroke="none" fill="#8c8c8c" text-anchor="middle" font-size="2.50001" class="text">2</text>
     <line  stroke-width="0.700001" x1="0.350001" stroke="#787878" y2="3.096" stroke-linecap="round" y1="3.096" id="connector0pin" x2="7.55002" class="pin" connectorname="1"/>
     <g x="0.350001"  stroke-width="0" y="3.096" stroke="none" fill="none" height="0.000283465" width="0.000283466" id="connector0terminal" class="terminal"/>
     <text x="3.95001" font-family="'Droid Sans'"  stroke-width="0" y="2.046" stroke="none" fill="#8c8c8c" text-anchor="middle" font-size="2.50001" class="text">1</text>
    </g>
   </g>
  </g>
 </g>
 <g partID="855426830">
  <g transform="translate(342.504,224.762)">
   <g transform="matrix(0,-1,1,0,0,0)">
    <g  id="schematic">
     <line  stroke-width="0.432002" x1="7.55002" stroke="#000000" y2="0.216" stroke-linecap="round" y1="3.096" x2="8.63003" class="other"/>
     <line  stroke-width="0.432002" x1="8.63003" stroke="#000000" y2="5.976" stroke-linecap="round" y1="0.216" x2="10.43" class="other"/>
     <line  stroke-width="0.432002" x1="10.43" stroke="#000000" y2="0.216" stroke-linecap="round" y1="5.976" x2="12.23" class="other"/>
     <line  stroke-width="0.432002" x1="12.23" stroke="#000000" y2="5.976" stroke-linecap="round" y1="0.216" x2="14.03" class="other"/>
     <line  stroke-width="0.432002" x1="14.03" stroke="#000000" y2="0.216" stroke-linecap="round" y1="5.976" x2="15.8301" class="other"/>
     <line  stroke-width="0.432002" x1="15.8301" stroke="#000000" y2="5.976" stroke-linecap="round" y1="0.216" x2="17.6301" class="other"/>
     <line  stroke-width="0.432002" x1="17.6301" stroke="#000000" y2="0.216" stroke-linecap="round" y1="5.976" x2="19.4301" class="other"/>
     <line  stroke-width="0.432002" x1="19.4301" stroke="#000000" y2="5.976" stroke-linecap="round" y1="0.216" x2="21.2301" class="other"/>
     <line  stroke-width="0.432002" x1="21.2301" stroke="#000000" y2="3.096" stroke-linecap="round" y1="5.976" x2="21.9501" class="other"/>
     <line  stroke-width="0.700001" x1="29.1502" stroke="#787878" y2="3.096" stroke-linecap="round" y1="3.096" id="connector1pin" x2="21.9501" class="pin" connectorname="2"/>
     <g x="29.1502"  stroke-width="0" y="3.096" stroke="none" fill="none" height="0.000283465" width="0.000283466" id="connector1terminal" class="terminal"/>
     <text x="25.5501" font-family="'Droid Sans'"  stroke-width="0" y="2.046" stroke="none" fill="#8c8c8c" text-anchor="middle" font-size="2.50001" class="text">2</text>
     <line  stroke-width="0.700001" x1="0.350001" stroke="#787878" y2="3.096" stroke-linecap="round" y1="3.096" id="connector0pin" x2="7.55002" class="pin" connectorname="1"/>
     <g x="0.350001"  stroke-width="0" y="3.096" stroke="none" fill="none" height="0.000283465" width="0.000283466" id="connector0terminal" class="terminal"/>
     <text x="3.95001" font-family="'Droid Sans'"  stroke-width="0" y="2.046" stroke="none" fill="#8c8c8c" text-anchor="middle" font-size="2.50001" class="text">1</text>
    </g>
   </g>
  </g>
 </g>
 <g partID="855427290">
  <g transform="translate(392.904,224.762)">
   <g transform="matrix(-4.44089e-16,-1,1,-4.44089e-16,0,0)">
    <g  id="schematic">
     <line  stroke-width="0.432002" x1="7.55002" stroke="#000000" y2="0.216" stroke-linecap="round" y1="3.096" x2="8.63003" class="other"/>
     <line  stroke-width="0.432002" x1="8.63003" stroke="#000000" y2="5.976" stroke-linecap="round" y1="0.216" x2="10.43" class="other"/>
     <line  stroke-width="0.432002" x1="10.43" stroke="#000000" y2="0.216" stroke-linecap="round" y1="5.976" x2="12.23" class="other"/>
     <line  stroke-width="0.432002" x1="12.23" stroke="#000000" y2="5.976" stroke-linecap="round" y1="0.216" x2="14.03" class="other"/>
     <line  stroke-width="0.432002" x1="14.03" stroke="#000000" y2="0.216" stroke-linecap="round" y1="5.976" x2="15.8301" class="other"/>
     <line  stroke-width="0.432002" x1="15.8301" stroke="#000000" y2="5.976" stroke-linecap="round" y1="0.216" x2="17.6301" class="other"/>
     <line  stroke-width="0.432002" x1="17.6301" stroke="#000000" y2="0.216" stroke-linecap="round" y1="5.976" x2="19.4301" class="other"/>
     <line  stroke-width="0.432002" x1="19.4301" stroke="#000000" y2="5.976" stroke-linecap="round" y1="0.216" x2="21.2301" class="other"/>
     <line  stroke-width="0.432002" x1="21.2301" stroke="#000000" y2="3.096" stroke-linecap="round" y1="5.976" x2="21.9501" class="other"/>
     <line  stroke-width="0.700001" x1="29.1502" stroke="#787878" y2="3.096" stroke-linecap="round" y1="3.096" id="connector1pin" x2="21.9501" class="pin" connectorname="2"/>
     <g x="29.1502"  stroke-width="0" y="3.096" stroke="none" fill="none" height="0.000283465" width="0.000283466" id="connector1terminal" class="terminal"/>
     <text x="25.5501" font-family="'Droid Sans'"  stroke-width="0" y="2.046" stroke="none" fill="#8c8c8c" text-anchor="middle" font-size="2.50001" class="text">2</text>
     <line  stroke-width="0.700001" x1="0.350001" stroke="#787878" y2="3.096" stroke-linecap="round" y1="3.096" id="connector0pin" x2="7.55002" class="pin" connectorname="1"/>
     <g x="0.350001"  stroke-width="0" y="3.096" stroke="none" fill="none" height="0.000283465" width="0.000283466" id="connector0terminal" class="terminal"/>
     <text x="3.95001" font-family="'Droid Sans'"  stroke-width="0" y="2.046" stroke="none" fill="#8c8c8c" text-anchor="middle" font-size="2.50001" class="text">1</text>
    </g>
   </g>
  </g>
 </g>
 <g partID="855428130">
  <g transform="translate(377.626,80.8299)">
   <g transform="matrix(0,-1,1,0,0,0)">
    <g id="schematic">
     <line stroke-width="0.7" x1="19.8" stroke="#000000" fill="none" y2="11.159" stroke-linecap="round" y1="11.159" x2="21.6"/>
     <line stroke-width="0.7" x1="7.2" stroke="#000000" fill="none" y2="7.559" stroke-linecap="round" y1="11.159" x2="19.8"/>
     <circle cy="11.159" stroke-width="0.7" stroke="#000000" fill="none" r="0.36" cx="7.2"/>
     <circle cy="11.159" stroke-width="0.7" stroke="#000000" fill="none" r="0.36" cx="21.6"/>
     <g transform="matrix(1, 0, 0, 1, 2.7612, 2.718)">
      <text font-family="'DroidSans'" fill="#787878" font-size="2">1</text>
     </g>
     <g transform="matrix(1, 0, 0, 1, 24.604, 2.718)">
      <text font-family="'DroidSans'" fill="#787878" font-size="2">2</text>
     </g>
     <g transform="matrix(1, 0, 0, 1, 2.7612, 16.843)">
      <text font-family="'DroidSans'" fill="#787878" font-size="2">1</text>
     </g>
     <g transform="matrix(1, 0, 0, 1, 24.604, 16.843)">
      <text font-family="'DroidSans'" fill="#787878" font-size="2">2</text>
     </g>
     <line stroke-width="0.7" x1="21.6" stroke="#000000" fill="none" y2="18.359" stroke-linecap="round" y1="3.96" x2="21.6"/>
     <line stroke-width="0.7" x1="7.2" stroke="#000000" fill="none" y2="18.359" stroke-linecap="round" y1="3.96" x2="7.2"/>
     <line stroke-width="0.7" x1="0.322" stroke="#555555" fill="none" y2="18.359" stroke-linecap="round" y1="18.359" id="connector3pin" x2="7.2"/>
     <line stroke-width="0.7" x1="0.322" stroke="#555555" fill="none" y2="3.96" stroke-linecap="round" y1="3.96" id="connector2pin" x2="7.2"/>
     <g fill="none" points="0.822,4.281,0.837,3.64,0,3.64,0,4.281" id="connector2terminal"/>
     <g fill="none" points="0.822,18.694,0.837,18.053,0,18.053,0,18.694" id="connector3terminal"/>
     <line stroke-width="0.7" x1="28.451" stroke="#555555" fill="none" y2="18.359" stroke-linecap="round" y1="18.359" id="connector1pin" x2="21.6"/>
     <g x="27.806" y="18.006" fill="none" height="0.672" width="0.994" id="connector1terminal"/>
     <g x="27.712" y="3.6" fill="none" height="0.719" width="1.088" id="connector0terminal"/>
     <line stroke-width="0.7" x1="28.451" stroke="#555555" fill="none" y2="3.96" stroke-linecap="round" y1="3.96" id="connector0pin" x2="21.6"/>
    </g>
   </g>
  </g>
 </g>
 <g partID="855430450">
  <g transform="translate(119.699,181.426)">
   <g transform="matrix(1,0,0,-1,0,0)">
    <g id="schematic">
     <g>
      <path d="M13.5,14.966L9.9,14.966c-0.193,0,-0.35,-0.156,-0.35,-0.35s0.156,-0.35,0.35,-0.35L13.5,14.266c0.193,0,0.35,0.156,0.35,0.35S13.694,14.966,13.5,14.966z"/>
     </g>
     <g>
      <path d="M9.9,14.966L6.3,14.966c-0.193,0,-0.35,-0.156,-0.35,-0.35s0.157,-0.35,0.35,-0.35l3.6,0c0.193,0,0.35,0.156,0.35,0.35S10.093,14.966,9.9,14.966z"/>
     </g>
     <g>
      <polygon fill="#FFFFFF" points="9.9,14.616,6.3,7.416,9.9,7.416,13.5,7.416"/>
      <path d="M9.9,15.398L5.734,7.066l8.333,0L9.9,15.398zM6.866,7.766L9.9,13.834l3.034,-6.068L6.866,7.766z"/>
     </g>
     <g>
      <path d="M9.9,14.841c-0.124,0,-0.225,-0.101,-0.225,-0.225l0,-7.2c0,-0.124,0.101,-0.225,0.225,-0.225s0.225,0.101,0.225,0.225l0,7.2C10.124,14.74,10.024,14.841,9.9,14.841z"/>
     </g>
     <g>
      <path d="M1.8,12.141c-0.058,0,-0.115,-0.021,-0.159,-0.065c-0.088,-0.088,-0.088,-0.23,0,-0.318l2.34,-2.341c0.088,-0.088,0.23,-0.088,0.318,0s0.088,0.23,0,0.318l-2.34,2.341C1.915,12.12,1.858,12.141,1.8,12.141z"/>
     </g>
     <g>
      <path d="M2.16,15.381c-0.058,0,-0.115,-0.021,-0.159,-0.065c-0.088,-0.088,-0.088,-0.23,0,-0.318l2.34,-2.34c0.088,-0.088,0.23,-0.088,0.318,0s0.088,0.23,0,0.318l-2.34,2.34C2.276,15.359,2.218,15.381,2.16,15.381z"/>
     </g>
     <g id="connector0pin">
      <path fill="#787878" d="M9.9,22.166c-0.193,0,-0.35,-0.156,-0.35,-0.35l0,-7.2c0,-0.193,0.156,-0.35,0.35,-0.35s0.35,0.156,0.35,0.35l0,7.2C10.249,22.01,10.093,22.166,9.9,22.166z"/>
     </g>
     <g id="connector0terminal">
      <rect x="9.9" y="21.816" fill="none" height="0.001" width="0.001"/>
     </g>
     <g transform="matrix(1, 0, 0, 1, 3.429, 6.4262)">
      <g>
       <g transform="rotate(270)">
        <g>
         <g enable-background="new    ">
          <path fill="#787878" d="M-11.647,5.54l-0.891,0L-12.538,5.388l0.342,-0.372c0.049,-0.053,0.093,-0.101,0.131,-0.145s0.071,-0.086,0.099,-0.128c0.026,-0.042,0.047,-0.084,0.062,-0.125c0.015,-0.043,0.021,-0.088,0.021,-0.138c0,-0.038,-0.005,-0.072,-0.017,-0.102s-0.027,-0.054,-0.047,-0.075c-0.021,-0.02,-0.045,-0.035,-0.073,-0.046s-0.06,-0.016,-0.094,-0.016c-0.062,0,-0.118,0.013,-0.167,0.038c-0.051,0.024,-0.098,0.057,-0.143,0.096l-0.1,-0.116c0.025,-0.023,0.055,-0.046,0.084,-0.065c0.029,-0.021,0.063,-0.039,0.097,-0.054s0.071,-0.026,0.109,-0.036c0.038,-0.008,0.079,-0.013,0.121,-0.013c0.063,0,0.119,0.009,0.169,0.026c0.051,0.018,0.094,0.043,0.129,0.076c0.035,0.032,0.063,0.072,0.082,0.119c0.019,0.048,0.028,0.101,0.028,0.16c0,0.056,-0.009,0.108,-0.026,0.158c-0.017,0.05,-0.041,0.1,-0.07,0.148c-0.031,0.048,-0.066,0.097,-0.109,0.146c-0.041,0.049,-0.087,0.1,-0.136,0.152L-12.32,5.37l0,0.008l0.673,0L-11.647,5.54z"/>
         </g>
        </g>
       </g>
      </g>
     </g>
     <g id="connector1pin">
      <path fill="#787878" d="M9.9,7.766c-0.193,0,-0.35,-0.157,-0.35,-0.35l0,-7.2c0,-0.193,0.156,-0.35,0.35,-0.35s0.35,0.157,0.35,0.35l0,7.2C10.249,7.609,10.093,7.766,9.9,7.766z"/>
     </g>
     <g id="connector1terminal">
      <polygon fill="none" points="9.9,0.216,9.901,0.216,9.901,0.216"/>
     </g>
     <g transform="matrix(1, 0, 0, 1, 3.429, 1.3462)">
      <g>
       <g transform="rotate(270)">
        <g>
         <g enable-background="new    ">
          <path fill="#787878" d="M-2.616,5.54l-0.172,0L-2.788,4.648c0,-0.028,0,-0.058,0,-0.09s0.001,-0.063,0.002,-0.095c0.001,-0.032,0.002,-0.063,0.003,-0.092c0.001,-0.028,0.002,-0.054,0.002,-0.076c-0.011,0.012,-0.021,0.021,-0.029,0.03s-0.017,0.017,-0.026,0.024s-0.018,0.016,-0.028,0.025c-0.01,0.008,-0.021,0.019,-0.035,0.03l-0.145,0.118l-0.094,-0.12l0.374,-0.292l0.146,0L-2.618,5.54z"/>
         </g>
        </g>
       </g>
      </g>
     </g>
     <g>
      <path d="M0.18,13.536l1.08,-2.521l1.44,1.438L0.18,13.536z"/>
     </g>
     <g>
      <path d="M0.54,16.776l1.08,-2.521l1.438,1.438L0.54,16.776z"/>
     </g>
    </g>
   </g>
  </g>
 </g>
 <g partID="855431000">
  <g transform="translate(162.899,181.428)">
   <g transform="matrix(1,0,0,-1,0,0)">
    <g id="schematic">
     <g>
      <path d="M13.5,14.966L9.9,14.966c-0.193,0,-0.35,-0.156,-0.35,-0.35s0.156,-0.35,0.35,-0.35L13.5,14.266c0.193,0,0.35,0.156,0.35,0.35S13.694,14.966,13.5,14.966z"/>
     </g>
     <g>
      <path d="M9.9,14.966L6.3,14.966c-0.193,0,-0.35,-0.156,-0.35,-0.35s0.157,-0.35,0.35,-0.35l3.6,0c0.193,0,0.35,0.156,0.35,0.35S10.093,14.966,9.9,14.966z"/>
     </g>
     <g>
      <polygon fill="#FFFFFF" points="9.9,14.616,6.3,7.416,9.9,7.416,13.5,7.416"/>
      <path d="M9.9,15.398L5.734,7.066l8.333,0L9.9,15.398zM6.866,7.766L9.9,13.834l3.034,-6.068L6.866,7.766z"/>
     </g>
     <g>
      <path d="M9.9,14.841c-0.124,0,-0.225,-0.101,-0.225,-0.225l0,-7.2c0,-0.124,0.101,-0.225,0.225,-0.225s0.225,0.101,0.225,0.225l0,7.2C10.124,14.74,10.024,14.841,9.9,14.841z"/>
     </g>
     <g>
      <path d="M1.8,12.141c-0.058,0,-0.115,-0.021,-0.159,-0.065c-0.088,-0.088,-0.088,-0.23,0,-0.318l2.34,-2.341c0.088,-0.088,0.23,-0.088,0.318,0s0.088,0.23,0,0.318l-2.34,2.341C1.915,12.12,1.858,12.141,1.8,12.141z"/>
     </g>
     <g>
      <path d="M2.16,15.381c-0.058,0,-0.115,-0.021,-0.159,-0.065c-0.088,-0.088,-0.088,-0.23,0,-0.318l2.34,-2.34c0.088,-0.088,0.23,-0.088,0.318,0s0.088,0.23,0,0.318l-2.34,2.34C2.276,15.359,2.218,15.381,2.16,15.381z"/>
     </g>
     <g id="connector0pin">
      <path fill="#787878" d="M9.9,22.166c-0.193,0,-0.35,-0.156,-0.35,-0.35l0,-7.2c0,-0.193,0.156,-0.35,0.35,-0.35s0.35,0.156,0.35,0.35l0,7.2C10.249,22.01,10.093,22.166,9.9,22.166z"/>
     </g>
     <g id="connector0terminal">
      <rect x="9.9" y="21.816" fill="none" height="0.001" width="0.001"/>
     </g>
     <g transform="matrix(1, 0, 0, 1, 3.429, 6.4262)">
      <g>
       <g transform="rotate(270)">
        <g>
         <g enable-background="new    ">
          <path fill="#787878" d="M-11.647,5.54l-0.891,0L-12.538,5.388l0.342,-0.372c0.049,-0.053,0.093,-0.101,0.131,-0.145s0.071,-0.086,0.099,-0.128c0.026,-0.042,0.047,-0.084,0.062,-0.125c0.015,-0.043,0.021,-0.088,0.021,-0.138c0,-0.038,-0.005,-0.072,-0.017,-0.102s-0.027,-0.054,-0.047,-0.075c-0.021,-0.02,-0.045,-0.035,-0.073,-0.046s-0.06,-0.016,-0.094,-0.016c-0.062,0,-0.118,0.013,-0.167,0.038c-0.051,0.024,-0.098,0.057,-0.143,0.096l-0.1,-0.116c0.025,-0.023,0.055,-0.046,0.084,-0.065c0.029,-0.021,0.063,-0.039,0.097,-0.054s0.071,-0.026,0.109,-0.036c0.038,-0.008,0.079,-0.013,0.121,-0.013c0.063,0,0.119,0.009,0.169,0.026c0.051,0.018,0.094,0.043,0.129,0.076c0.035,0.032,0.063,0.072,0.082,0.119c0.019,0.048,0.028,0.101,0.028,0.16c0,0.056,-0.009,0.108,-0.026,0.158c-0.017,0.05,-0.041,0.1,-0.07,0.148c-0.031,0.048,-0.066,0.097,-0.109,0.146c-0.041,0.049,-0.087,0.1,-0.136,0.152L-12.32,5.37l0,0.008l0.673,0L-11.647,5.54z"/>
         </g>
        </g>
       </g>
      </g>
     </g>
     <g id="connector1pin">
      <path fill="#787878" d="M9.9,7.766c-0.193,0,-0.35,-0.157,-0.35,-0.35l0,-7.2c0,-0.193,0.156,-0.35,0.35,-0.35s0.35,0.157,0.35,0.35l0,7.2C10.249,7.609,10.093,7.766,9.9,7.766z"/>
     </g>
     <g id="connector1terminal">
      <polygon fill="none" points="9.9,0.216,9.901,0.216,9.901,0.216"/>
     </g>
     <g transform="matrix(1, 0, 0, 1, 3.429, 1.3462)">
      <g>
       <g transform="rotate(270)">
        <g>
         <g enable-background="new    ">
          <path fill="#787878" d="M-2.616,5.54l-0.172,0L-2.788,4.648c0,-0.028,0,-0.058,0,-0.09s0.001,-0.063,0.002,-0.095c0.001,-0.032,0.002,-0.063,0.003,-0.092c0.001,-0.028,0.002,-0.054,0.002,-0.076c-0.011,0.012,-0.021,0.021,-0.029,0.03s-0.017,0.017,-0.026,0.024s-0.018,0.016,-0.028,0.025c-0.01,0.008,-0.021,0.019,-0.035,0.03l-0.145,0.118l-0.094,-0.12l0.374,-0.292l0.146,0L-2.618,5.54z"/>
         </g>
        </g>
       </g>
      </g>
     </g>
     <g>
      <path d="M0.18,13.536l1.08,-2.521l1.44,1.438L0.18,13.536z"/>
     </g>
     <g>
      <path d="M0.54,16.776l1.08,-2.521l1.438,1.438L0.54,16.776z"/>
     </g>
    </g>
   </g>
  </g>
 </g>
 <g partID="855431060">
  <g transform="translate(206.099,181.428)">
   <g transform="matrix(1,0,0,-1,0,0)">
    <g id="schematic">
     <g>
      <path d="M13.5,14.966L9.9,14.966c-0.193,0,-0.35,-0.156,-0.35,-0.35s0.156,-0.35,0.35,-0.35L13.5,14.266c0.193,0,0.35,0.156,0.35,0.35S13.694,14.966,13.5,14.966z"/>
     </g>
     <g>
      <path d="M9.9,14.966L6.3,14.966c-0.193,0,-0.35,-0.156,-0.35,-0.35s0.157,-0.35,0.35,-0.35l3.6,0c0.193,0,0.35,0.156,0.35,0.35S10.093,14.966,9.9,14.966z"/>
     </g>
     <g>
      <polygon fill="#FFFFFF" points="9.9,14.616,6.3,7.416,9.9,7.416,13.5,7.416"/>
      <path d="M9.9,15.398L5.734,7.066l8.333,0L9.9,15.398zM6.866,7.766L9.9,13.834l3.034,-6.068L6.866,7.766z"/>
     </g>
     <g>
      <path d="M9.9,14.841c-0.124,0,-0.225,-0.101,-0.225,-0.225l0,-7.2c0,-0.124,0.101,-0.225,0.225,-0.225s0.225,0.101,0.225,0.225l0,7.2C10.124,14.74,10.024,14.841,9.9,14.841z"/>
     </g>
     <g>
      <path d="M1.8,12.141c-0.058,0,-0.115,-0.021,-0.159,-0.065c-0.088,-0.088,-0.088,-0.23,0,-0.318l2.34,-2.341c0.088,-0.088,0.23,-0.088,0.318,0s0.088,0.23,0,0.318l-2.34,2.341C1.915,12.12,1.858,12.141,1.8,12.141z"/>
     </g>
     <g>
      <path d="M2.16,15.381c-0.058,0,-0.115,-0.021,-0.159,-0.065c-0.088,-0.088,-0.088,-0.23,0,-0.318l2.34,-2.34c0.088,-0.088,0.23,-0.088,0.318,0s0.088,0.23,0,0.318l-2.34,2.34C2.276,15.359,2.218,15.381,2.16,15.381z"/>
     </g>
     <g id="connector0pin">
      <path fill="#787878" d="M9.9,22.166c-0.193,0,-0.35,-0.156,-0.35,-0.35l0,-7.2c0,-0.193,0.156,-0.35,0.35,-0.35s0.35,0.156,0.35,0.35l0,7.2C10.249,22.01,10.093,22.166,9.9,22.166z"/>
     </g>
     <g id="connector0terminal">
      <rect x="9.9" y="21.816" fill="none" height="0.001" width="0.001"/>
     </g>
     <g transform="matrix(1, 0, 0, 1, 3.429, 6.4262)">
      <g>
       <g transform="rotate(270)">
        <g>
         <g enable-background="new    ">
          <path fill="#787878" d="M-11.647,5.54l-0.891,0L-12.538,5.388l0.342,-0.372c0.049,-0.053,0.093,-0.101,0.131,-0.145s0.071,-0.086,0.099,-0.128c0.026,-0.042,0.047,-0.084,0.062,-0.125c0.015,-0.043,0.021,-0.088,0.021,-0.138c0,-0.038,-0.005,-0.072,-0.017,-0.102s-0.027,-0.054,-0.047,-0.075c-0.021,-0.02,-0.045,-0.035,-0.073,-0.046s-0.06,-0.016,-0.094,-0.016c-0.062,0,-0.118,0.013,-0.167,0.038c-0.051,0.024,-0.098,0.057,-0.143,0.096l-0.1,-0.116c0.025,-0.023,0.055,-0.046,0.084,-0.065c0.029,-0.021,0.063,-0.039,0.097,-0.054s0.071,-0.026,0.109,-0.036c0.038,-0.008,0.079,-0.013,0.121,-0.013c0.063,0,0.119,0.009,0.169,0.026c0.051,0.018,0.094,0.043,0.129,0.076c0.035,0.032,0.063,0.072,0.082,0.119c0.019,0.048,0.028,0.101,0.028,0.16c0,0.056,-0.009,0.108,-0.026,0.158c-0.017,0.05,-0.041,0.1,-0.07,0.148c-0.031,0.048,-0.066,0.097,-0.109,0.146c-0.041,0.049,-0.087,0.1,-0.136,0.152L-12.32,5.37l0,0.008l0.673,0L-11.647,5.54z"/>
         </g>
        </g>
       </g>
      </g>
     </g>
     <g id="connector1pin">
      <path fill="#787878" d="M9.9,7.766c-0.193,0,-0.35,-0.157,-0.35,-0.35l0,-7.2c0,-0.193,0.156,-0.35,0.35,-0.35s0.35,0.157,0.35,0.35l0,7.2C10.249,7.609,10.093,7.766,9.9,7.766z"/>
     </g>
     <g id="connector1terminal">
      <polygon fill="none" points="9.9,0.216,9.901,0.216,9.901,0.216"/>
     </g>
     <g transform="matrix(1, 0, 0, 1, 3.429, 1.3462)">
      <g>
       <g transform="rotate(270)">
        <g>
         <g enable-background="new    ">
          <path fill="#787878" d="M-2.616,5.54l-0.172,0L-2.788,4.648c0,-0.028,0,-0.058,0,-0.09s0.001,-0.063,0.002,-0.095c0.001,-0.032,0.002,-0.063,0.003,-0.092c0.001,-0.028,0.002,-0.054,0.002,-0.076c-0.011,0.012,-0.021,0.021,-0.029,0.03s-0.017,0.017,-0.026,0.024s-0.018,0.016,-0.028,0.025c-0.01,0.008,-0.021,0.019,-0.035,0.03l-0.145,0.118l-0.094,-0.12l0.374,-0.292l0.146,0L-2.618,5.54z"/>
         </g>
        </g>
       </g>
      </g>
     </g>
     <g>
      <path d="M0.18,13.536l1.08,-2.521l1.44,1.438L0.18,13.536z"/>
     </g>
     <g>
      <path d="M0.54,16.776l1.08,-2.521l1.438,1.438L0.54,16.776z"/>
     </g>
    </g>
   </g>
  </g>
 </g>
 <g partID="855431120">
  <g transform="translate(249.299,181.428)">
   <g transform="matrix(1,0,0,-1,0,0)">
    <g id="schematic">
     <g>
      <path d="M13.5,14.966L9.9,14.966c-0.193,0,-0.35,-0.156,-0.35,-0.35s0.156,-0.35,0.35,-0.35L13.5,14.266c0.193,0,0.35,0.156,0.35,0.35S13.694,14.966,13.5,14.966z"/>
     </g>
     <g>
      <path d="M9.9,14.966L6.3,14.966c-0.193,0,-0.35,-0.156,-0.35,-0.35s0.157,-0.35,0.35,-0.35l3.6,0c0.193,0,0.35,0.156,0.35,0.35S10.093,14.966,9.9,14.966z"/>
     </g>
     <g>
      <polygon fill="#FFFFFF" points="9.9,14.616,6.3,7.416,9.9,7.416,13.5,7.416"/>
      <path d="M9.9,15.398L5.734,7.066l8.333,0L9.9,15.398zM6.866,7.766L9.9,13.834l3.034,-6.068L6.866,7.766z"/>
     </g>
     <g>
      <path d="M9.9,14.841c-0.124,0,-0.225,-0.101,-0.225,-0.225l0,-7.2c0,-0.124,0.101,-0.225,0.225,-0.225s0.225,0.101,0.225,0.225l0,7.2C10.124,14.74,10.024,14.841,9.9,14.841z"/>
     </g>
     <g>
      <path d="M1.8,12.141c-0.058,0,-0.115,-0.021,-0.159,-0.065c-0.088,-0.088,-0.088,-0.23,0,-0.318l2.34,-2.341c0.088,-0.088,0.23,-0.088,0.318,0s0.088,0.23,0,0.318l-2.34,2.341C1.915,12.12,1.858,12.141,1.8,12.141z"/>
     </g>
     <g>
      <path d="M2.16,15.381c-0.058,0,-0.115,-0.021,-0.159,-0.065c-0.088,-0.088,-0.088,-0.23,0,-0.318l2.34,-2.34c0.088,-0.088,0.23,-0.088,0.318,0s0.088,0.23,0,0.318l-2.34,2.34C2.276,15.359,2.218,15.381,2.16,15.381z"/>
     </g>
     <g id="connector0pin">
      <path fill="#787878" d="M9.9,22.166c-0.193,0,-0.35,-0.156,-0.35,-0.35l0,-7.2c0,-0.193,0.156,-0.35,0.35,-0.35s0.35,0.156,0.35,0.35l0,7.2C10.249,22.01,10.093,22.166,9.9,22.166z"/>
     </g>
     <g id="connector0terminal">
      <rect x="9.9" y="21.816" fill="none" height="0.001" width="0.001"/>
     </g>
     <g transform="matrix(1, 0, 0, 1, 3.429, 6.4262)">
      <g>
       <g transform="rotate(270)">
        <g>
         <g enable-background="new    ">
          <path fill="#787878" d="M-11.647,5.54l-0.891,0L-12.538,5.388l0.342,-0.372c0.049,-0.053,0.093,-0.101,0.131,-0.145s0.071,-0.086,0.099,-0.128c0.026,-0.042,0.047,-0.084,0.062,-0.125c0.015,-0.043,0.021,-0.088,0.021,-0.138c0,-0.038,-0.005,-0.072,-0.017,-0.102s-0.027,-0.054,-0.047,-0.075c-0.021,-0.02,-0.045,-0.035,-0.073,-0.046s-0.06,-0.016,-0.094,-0.016c-0.062,0,-0.118,0.013,-0.167,0.038c-0.051,0.024,-0.098,0.057,-0.143,0.096l-0.1,-0.116c0.025,-0.023,0.055,-0.046,0.084,-0.065c0.029,-0.021,0.063,-0.039,0.097,-0.054s0.071,-0.026,0.109,-0.036c0.038,-0.008,0.079,-0.013,0.121,-0.013c0.063,0,0.119,0.009,0.169,0.026c0.051,0.018,0.094,0.043,0.129,0.076c0.035,0.032,0.063,0.072,0.082,0.119c0.019,0.048,0.028,0.101,0.028,0.16c0,0.056,-0.009,0.108,-0.026,0.158c-0.017,0.05,-0.041,0.1,-0.07,0.148c-0.031,0.048,-0.066,0.097,-0.109,0.146c-0.041,0.049,-0.087,0.1,-0.136,0.152L-12.32,5.37l0,0.008l0.673,0L-11.647,5.54z"/>
         </g>
        </g>
       </g>
      </g>
     </g>
     <g id="connector1pin">
      <path fill="#787878" d="M9.9,7.766c-0.193,0,-0.35,-0.157,-0.35,-0.35l0,-7.2c0,-0.193,0.156,-0.35,0.35,-0.35s0.35,0.157,0.35,0.35l0,7.2C10.249,7.609,10.093,7.766,9.9,7.766z"/>
     </g>
     <g id="connector1terminal">
      <polygon fill="none" points="9.9,0.216,9.901,0.216,9.901,0.216"/>
     </g>
     <g transform="matrix(1, 0, 0, 1, 3.429, 1.3462)">
      <g>
       <g transform="rotate(270)">
        <g>
         <g enable-background="new    ">
          <path fill="#787878" d="M-2.616,5.54l-0.172,0L-2.788,4.648c0,-0.028,0,-0.058,0,-0.09s0.001,-0.063,0.002,-0.095c0.001,-0.032,0.002,-0.063,0.003,-0.092c0.001,-0.028,0.002,-0.054,0.002,-0.076c-0.011,0.012,-0.021,0.021,-0.029,0.03s-0.017,0.017,-0.026,0.024s-0.018,0.016,-0.028,0.025c-0.01,0.008,-0.021,0.019,-0.035,0.03l-0.145,0.118l-0.094,-0.12l0.374,-0.292l0.146,0L-2.618,5.54z"/>
         </g>
        </g>
       </g>
      </g>
     </g>
     <g>
      <path d="M0.18,13.536l1.08,-2.521l1.44,1.438L0.18,13.536z"/>
     </g>
     <g>
      <path d="M0.54,16.776l1.08,-2.521l1.438,1.438L0.54,16.776z"/>
     </g>
    </g>
   </g>
  </g>
 </g>
 <g partID="855431180">
  <g transform="translate(292.499,181.428)">
   <g transform="matrix(1,0,0,-1,0,0)">
    <g id="schematic">
     <g>
      <path d="M13.5,14.966L9.9,14.966c-0.193,0,-0.35,-0.156,-0.35,-0.35s0.156,-0.35,0.35,-0.35L13.5,14.266c0.193,0,0.35,0.156,0.35,0.35S13.694,14.966,13.5,14.966z"/>
     </g>
     <g>
      <path d="M9.9,14.966L6.3,14.966c-0.193,0,-0.35,-0.156,-0.35,-0.35s0.157,-0.35,0.35,-0.35l3.6,0c0.193,0,0.35,0.156,0.35,0.35S10.093,14.966,9.9,14.966z"/>
     </g>
     <g>
      <polygon fill="#FFFFFF" points="9.9,14.616,6.3,7.416,9.9,7.416,13.5,7.416"/>
      <path d="M9.9,15.398L5.734,7.066l8.333,0L9.9,15.398zM6.866,7.766L9.9,13.834l3.034,-6.068L6.866,7.766z"/>
     </g>
     <g>
      <path d="M9.9,14.841c-0.124,0,-0.225,-0.101,-0.225,-0.225l0,-7.2c0,-0.124,0.101,-0.225,0.225,-0.225s0.225,0.101,0.225,0.225l0,7.2C10.124,14.74,10.024,14.841,9.9,14.841z"/>
     </g>
     <g>
      <path d="M1.8,12.141c-0.058,0,-0.115,-0.021,-0.159,-0.065c-0.088,-0.088,-0.088,-0.23,0,-0.318l2.34,-2.341c0.088,-0.088,0.23,-0.088,0.318,0s0.088,0.23,0,0.318l-2.34,2.341C1.915,12.12,1.858,12.141,1.8,12.141z"/>
     </g>
     <g>
      <path d="M2.16,15.381c-0.058,0,-0.115,-0.021,-0.159,-0.065c-0.088,-0.088,-0.088,-0.23,0,-0.318l2.34,-2.34c0.088,-0.088,0.23,-0.088,0.318,0s0.088,0.23,0,0.318l-2.34,2.34C2.276,15.359,2.218,15.381,2.16,15.381z"/>
     </g>
     <g id="connector0pin">
      <path fill="#787878" d="M9.9,22.166c-0.193,0,-0.35,-0.156,-0.35,-0.35l0,-7.2c0,-0.193,0.156,-0.35,0.35,-0.35s0.35,0.156,0.35,0.35l0,7.2C10.249,22.01,10.093,22.166,9.9,22.166z"/>
     </g>
     <g id="connector0terminal">
      <rect x="9.9" y="21.816" fill="none" height="0.001" width="0.001"/>
     </g>
     <g transform="matrix(1, 0, 0, 1, 3.429, 6.4262)">
      <g>
       <g transform="rotate(270)">
        <g>
         <g enable-background="new    ">
          <path fill="#787878" d="M-11.647,5.54l-0.891,0L-12.538,5.388l0.342,-0.372c0.049,-0.053,0.093,-0.101,0.131,-0.145s0.071,-0.086,0.099,-0.128c0.026,-0.042,0.047,-0.084,0.062,-0.125c0.015,-0.043,0.021,-0.088,0.021,-0.138c0,-0.038,-0.005,-0.072,-0.017,-0.102s-0.027,-0.054,-0.047,-0.075c-0.021,-0.02,-0.045,-0.035,-0.073,-0.046s-0.06,-0.016,-0.094,-0.016c-0.062,0,-0.118,0.013,-0.167,0.038c-0.051,0.024,-0.098,0.057,-0.143,0.096l-0.1,-0.116c0.025,-0.023,0.055,-0.046,0.084,-0.065c0.029,-0.021,0.063,-0.039,0.097,-0.054s0.071,-0.026,0.109,-0.036c0.038,-0.008,0.079,-0.013,0.121,-0.013c0.063,0,0.119,0.009,0.169,0.026c0.051,0.018,0.094,0.043,0.129,0.076c0.035,0.032,0.063,0.072,0.082,0.119c0.019,0.048,0.028,0.101,0.028,0.16c0,0.056,-0.009,0.108,-0.026,0.158c-0.017,0.05,-0.041,0.1,-0.07,0.148c-0.031,0.048,-0.066,0.097,-0.109,0.146c-0.041,0.049,-0.087,0.1,-0.136,0.152L-12.32,5.37l0,0.008l0.673,0L-11.647,5.54z"/>
         </g>
        </g>
       </g>
      </g>
     </g>
     <g id="connector1pin">
      <path fill="#787878" d="M9.9,7.766c-0.193,0,-0.35,-0.157,-0.35,-0.35l0,-7.2c0,-0.193,0.156,-0.35,0.35,-0.35s0.35,0.157,0.35,0.35l0,7.2C10.249,7.609,10.093,7.766,9.9,7.766z"/>
     </g>
     <g id="connector1terminal">
      <polygon fill="none" points="9.9,0.216,9.901,0.216,9.901,0.216"/>
     </g>
     <g transform="matrix(1, 0, 0, 1, 3.429, 1.3462)">
      <g>
       <g transform="rotate(270)">
        <g>
         <g enable-background="new    ">
          <path fill="#787878" d="M-2.616,5.54l-0.172,0L-2.788,4.648c0,-0.028,0,-0.058,0,-0.09s0.001,-0.063,0.002,-0.095c0.001,-0.032,0.002,-0.063,0.003,-0.092c0.001,-0.028,0.002,-0.054,0.002,-0.076c-0.011,0.012,-0.021,0.021,-0.029,0.03s-0.017,0.017,-0.026,0.024s-0.018,0.016,-0.028,0.025c-0.01,0.008,-0.021,0.019,-0.035,0.03l-0.145,0.118l-0.094,-0.12l0.374,-0.292l0.146,0L-2.618,5.54z"/>
         </g>
        </g>
       </g>
      </g>
     </g>
     <g>
      <path d="M0.18,13.536l1.08,-2.521l1.44,1.438L0.18,13.536z"/>
     </g>
     <g>
      <path d="M0.54,16.776l1.08,-2.521l1.438,1.438L0.54,16.776z"/>
     </g>
    </g>
   </g>
  </g>
 </g>
 <g partID="855431240">
  <g transform="translate(335.699,181.428)">
   <g transform="matrix(1,0,0,-1,0,0)">
    <g id="schematic">
     <g>
      <path d="M13.5,14.966L9.9,14.966c-0.193,0,-0.35,-0.156,-0.35,-0.35s0.156,-0.35,0.35,-0.35L13.5,14.266c0.193,0,0.35,0.156,0.35,0.35S13.694,14.966,13.5,14.966z"/>
     </g>
     <g>
      <path d="M9.9,14.966L6.3,14.966c-0.193,0,-0.35,-0.156,-0.35,-0.35s0.157,-0.35,0.35,-0.35l3.6,0c0.193,0,0.35,0.156,0.35,0.35S10.093,14.966,9.9,14.966z"/>
     </g>
     <g>
      <polygon fill="#FFFFFF" points="9.9,14.616,6.3,7.416,9.9,7.416,13.5,7.416"/>
      <path d="M9.9,15.398L5.734,7.066l8.333,0L9.9,15.398zM6.866,7.766L9.9,13.834l3.034,-6.068L6.866,7.766z"/>
     </g>
     <g>
      <path d="M9.9,14.841c-0.124,0,-0.225,-0.101,-0.225,-0.225l0,-7.2c0,-0.124,0.101,-0.225,0.225,-0.225s0.225,0.101,0.225,0.225l0,7.2C10.124,14.74,10.024,14.841,9.9,14.841z"/>
     </g>
     <g>
      <path d="M1.8,12.141c-0.058,0,-0.115,-0.021,-0.159,-0.065c-0.088,-0.088,-0.088,-0.23,0,-0.318l2.34,-2.341c0.088,-0.088,0.23,-0.088,0.318,0s0.088,0.23,0,0.318l-2.34,2.341C1.915,12.12,1.858,12.141,1.8,12.141z"/>
     </g>
     <g>
      <path d="M2.16,15.381c-0.058,0,-0.115,-0.021,-0.159,-0.065c-0.088,-0.088,-0.088,-0.23,0,-0.318l2.34,-2.34c0.088,-0.088,0.23,-0.088,0.318,0s0.088,0.23,0,0.318l-2.34,2.34C2.276,15.359,2.218,15.381,2.16,15.381z"/>
     </g>
     <g id="connector0pin">
      <path fill="#787878" d="M9.9,22.166c-0.193,0,-0.35,-0.156,-0.35,-0.35l0,-7.2c0,-0.193,0.156,-0.35,0.35,-0.35s0.35,0.156,0.35,0.35l0,7.2C10.249,22.01,10.093,22.166,9.9,22.166z"/>
     </g>
     <g id="connector0terminal">
      <rect x="9.9" y="21.816" fill="none" height="0.001" width="0.001"/>
     </g>
     <g transform="matrix(1, 0, 0, 1, 3.429, 6.4262)">
      <g>
       <g transform="rotate(270)">
        <g>
         <g enable-background="new    ">
          <path fill="#787878" d="M-11.647,5.54l-0.891,0L-12.538,5.388l0.342,-0.372c0.049,-0.053,0.093,-0.101,0.131,-0.145s0.071,-0.086,0.099,-0.128c0.026,-0.042,0.047,-0.084,0.062,-0.125c0.015,-0.043,0.021,-0.088,0.021,-0.138c0,-0.038,-0.005,-0.072,-0.017,-0.102s-0.027,-0.054,-0.047,-0.075c-0.021,-0.02,-0.045,-0.035,-0.073,-0.046s-0.06,-0.016,-0.094,-0.016c-0.062,0,-0.118,0.013,-0.167,0.038c-0.051,0.024,-0.098,0.057,-0.143,0.096l-0.1,-0.116c0.025,-0.023,0.055,-0.046,0.084,-0.065c0.029,-0.021,0.063,-0.039,0.097,-0.054s0.071,-0.026,0.109,-0.036c0.038,-0.008,0.079,-0.013,0.121,-0.013c0.063,0,0.119,0.009,0.169,0.026c0.051,0.018,0.094,0.043,0.129,0.076c0.035,0.032,0.063,0.072,0.082,0.119c0.019,0.048,0.028,0.101,0.028,0.16c0,0.056,-0.009,0.108,-0.026,0.158c-0.017,0.05,-0.041,0.1,-0.07,0.148c-0.031,0.048,-0.066,0.097,-0.109,0.146c-0.041,0.049,-0.087,0.1,-0.136,0.152L-12.32,5.37l0,0.008l0.673,0L-11.647,5.54z"/>
         </g>
        </g>
       </g>
      </g>
     </g>
     <g id="connector1pin">
      <path fill="#787878" d="M9.9,7.766c-0.193,0,-0.35,-0.157,-0.35,-0.35l0,-7.2c0,-0.193,0.156,-0.35,0.35,-0.35s0.35,0.157,0.35,0.35l0,7.2C10.249,7.609,10.093,7.766,9.9,7.766z"/>
     </g>
     <g id="connector1terminal">
      <polygon fill="none" points="9.9,0.216,9.901,0.216,9.901,0.216"/>
     </g>
     <g transform="matrix(1, 0, 0, 1, 3.429, 1.3462)">
      <g>
       <g transform="rotate(270)">
        <g>
         <g enable-background="new    ">
          <path fill="#787878" d="M-2.616,5.54l-0.172,0L-2.788,4.648c0,-0.028,0,-0.058,0,-0.09s0.001,-0.063,0.002,-0.095c0.001,-0.032,0.002,-0.063,0.003,-0.092c0.001,-0.028,0.002,-0.054,0.002,-0.076c-0.011,0.012,-0.021,0.021,-0.029,0.03s-0.017,0.017,-0.026,0.024s-0.018,0.016,-0.028,0.025c-0.01,0.008,-0.021,0.019,-0.035,0.03l-0.145,0.118l-0.094,-0.12l0.374,-0.292l0.146,0L-2.618,5.54z"/>
         </g>
        </g>
       </g>
      </g>
     </g>
     <g>
      <path d="M0.18,13.536l1.08,-2.521l1.44,1.438L0.18,13.536z"/>
     </g>
     <g>
      <path d="M0.54,16.776l1.08,-2.521l1.438,1.438L0.54,16.776z"/>
     </g>
    </g>
   </g>
  </g>
 </g>
 <g partID="855448690">
  <line stroke-width="0.699998" x1="395.911" stroke="#cc1414" y2="1.05881" stroke-linecap="round" y1="1.05881" x2="50.1756"/>
 </g>
 <circle cy="1.05881" stroke-width="0" stroke="none" fill="black" r="0.72" cx="395.911"/>
 <circle cy="1.05881" stroke-width="0" stroke="none" fill="black" r="0.72" cx="50.1756"/>
 <g partID="855448500">
  <line stroke-width="0.699998" x1="50.1756" stroke="#cc1414" y2="15.6114" stroke-linecap="round" y1="1.05881" x2="50.3999"/>
 </g>
 <circle cy="1.05881" stroke-width="0" stroke="none" fill="black" r="0.72" cx="50.1756"/>
 <g partID="855448410">
  <line stroke-width="0.699998" x1="395.968" stroke="#cc1414" y2="1.05881" stroke-linecap="round" y1="52.5269" x2="395.911"/>
 </g>
 <circle cy="1.05881" stroke-width="0" stroke="none" fill="black" r="0.72" cx="395.911"/>
 <g partID="855448830">
  <line stroke-width="0.699998" x1="129.666" stroke="#fff800" y2="58.8113" stroke-linecap="round" y1="59.0006" x2="108"/>
 </g>
 <circle cy="59.0006" stroke-width="0" stroke="none" fill="black" r="0.72" cx="129.666"/>
 <g partID="855448780">
  <line stroke-width="0.699998" x1="129.6" stroke="#fff800" y2="59.0006" stroke-linecap="round" y1="159.61" x2="129.666"/>
 </g>
 <circle cy="59.0006" stroke-width="0" stroke="none" fill="black" r="0.72" cx="129.666"/>
 <g partID="855448880">
  <line stroke-width="0.699998" x1="172.8" stroke="#fff800" y2="66.1835" stroke-linecap="round" y1="159.612" x2="172.763"/>
 </g>
 <circle cy="66.1835" stroke-width="0" stroke="none" fill="black" r="0.72" cx="172.763"/>
 <g partID="855448930">
  <line stroke-width="0.699998" x1="172.763" stroke="#fff800" y2="66.0113" stroke-linecap="round" y1="66.1835" x2="108"/>
 </g>
 <circle cy="66.1835" stroke-width="0" stroke="none" fill="black" r="0.72" cx="172.763"/>
 <g partID="855449540">
  <line stroke-width="0.699998" x1="215.86" stroke="#fff800" y2="159.611" stroke-linecap="round" y1="73.3664" x2="216"/>
 </g>
 <circle cy="73.3664" stroke-width="0" stroke="none" fill="black" r="0.72" cx="215.86"/>
 <g partID="855449500">
  <line stroke-width="0.699998" x1="108" stroke="#fff800" y2="73.3664" stroke-linecap="round" y1="73.2113" x2="215.86"/>
 </g>
 <circle cy="73.3664" stroke-width="0" stroke="none" fill="black" r="0.72" cx="215.86"/>
 <g partID="855449590">
  <line stroke-width="0.699998" x1="259.2" stroke="#fff800" y2="80.5492" stroke-linecap="round" y1="159.611" x2="259.437"/>
 </g>
 <circle cy="80.5492" stroke-width="0" stroke="none" fill="black" r="0.72" cx="259.437"/>
 <g partID="855449630">
  <line stroke-width="0.699998" x1="259.437" stroke="#fff800" y2="80.4113" stroke-linecap="round" y1="80.5492" x2="108"/>
 </g>
 <circle cy="80.5492" stroke-width="0" stroke="none" fill="black" r="0.72" cx="259.437"/>
 <g partID="855449700">
  <line stroke-width="0.699998" x1="108" stroke="#fff800" y2="87.7321" stroke-linecap="round" y1="87.6113" x2="302.534"/>
 </g>
 <circle cy="87.7321" stroke-width="0" stroke="none" fill="black" r="0.72" cx="302.534"/>
 <g partID="855449740">
  <line stroke-width="0.699998" x1="302.534" stroke="#fff800" y2="159.611" stroke-linecap="round" y1="87.7321" x2="302.4"/>
 </g>
 <circle cy="87.7321" stroke-width="0" stroke="none" fill="black" r="0.72" cx="302.534"/>
 <g partID="855449790">
  <line stroke-width="0.699998" x1="108" stroke="#25cc35" y2="102.098" stroke-linecap="round" y1="102.011" x2="381.545"/>
 </g>
 <circle cy="102.098" stroke-width="0" stroke="none" fill="black" r="0.72" cx="381.545"/>
 <g partID="855449870">
  <line stroke-width="0.699998" x1="381.545" stroke="#25cc35" y2="80.4114" stroke-linecap="round" y1="102.098" x2="381.587"/>
 </g>
 <circle cy="102.098" stroke-width="0" stroke="none" fill="black" r="0.72" cx="381.545"/>
 <g partID="855449960">
  <line stroke-width="0.699998" x1="396" stroke="#404040" y2="195.611" stroke-linecap="round" y1="80.4114" x2="396"/>
 </g>
 <g partID="855450080">
  <line stroke-width="0.699998" x1="108" stroke="#fff800" y2="94.915" stroke-linecap="round" y1="94.8113" x2="345.631"/>
 </g>
 <circle cy="94.915" stroke-width="0" stroke="none" fill="black" r="0.72" cx="345.631"/>
 <g partID="855450120">
  <line stroke-width="0.699998" x1="345.631" stroke="#fff800" y2="159.611" stroke-linecap="round" y1="94.915" x2="345.6"/>
 </g>
 <circle cy="94.915" stroke-width="0" stroke="none" fill="black" r="0.72" cx="345.631"/>
 <g partID="855450170">
  <line stroke-width="0.699998" x1="129.6" stroke="#404040" y2="195.611" stroke-linecap="round" y1="181.21" x2="129.6"/>
 </g>
 <g partID="855450210">
  <line stroke-width="0.699998" x1="172.8" stroke="#404040" y2="195.611" stroke-linecap="round" y1="181.212" x2="172.8"/>
 </g>
 <g partID="855450250">
  <line stroke-width="0.699998" x1="216" stroke="#404040" y2="195.611" stroke-linecap="round" y1="181.212" x2="216"/>
 </g>
 <g partID="855450290">
  <line stroke-width="0.699998" x1="259.2" stroke="#404040" y2="195.611" stroke-linecap="round" y1="181.212" x2="259.2"/>
 </g>
 <g partID="855450330">
  <line stroke-width="0.699998" x1="302.4" stroke="#404040" y2="195.611" stroke-linecap="round" y1="181.212" x2="302.4"/>
 </g>
 <g partID="855450370">
  <line stroke-width="0.699998" x1="345.6" stroke="#404040" y2="195.611" stroke-linecap="round" y1="181.212" x2="345.6"/>
 </g>
 <g partID="855450410">
  <line stroke-width="0.699998" x1="345.6" stroke="#404040" y2="224.411" stroke-linecap="round" y1="224.411" x2="396"/>
 </g>
 <circle cy="224.411" stroke-width="0" stroke="none" fill="black" r="1.44" cx="345.6"/>
 <g partID="855450690">
  <line stroke-width="0.699998" x1="345.6" stroke="#404040" y2="224.411" stroke-linecap="round" y1="224.411" x2="302.4"/>
 </g>
 <circle cy="224.411" stroke-width="0" stroke="none" fill="black" r="1.44" cx="345.6"/>
 <circle cy="224.411" stroke-width="0" stroke="none" fill="black" r="1.44" cx="302.4"/>
 <g partID="855450950">
  <line stroke-width="0.699998" x1="302.4" stroke="#404040" y2="224.411" stroke-linecap="round" y1="224.411" x2="259.2"/>
 </g>
 <circle cy="224.411" stroke-width="0" stroke="none" fill="black" r="1.44" cx="302.4"/>
 <circle cy="224.411" stroke-width="0" stroke="none" fill="black" r="1.44" cx="259.2"/>
 <g partID="855451190">
  <line stroke-width="0.699998" x1="259.2" stroke="#404040" y2="224.411" stroke-linecap="round" y1="224.411" x2="216"/>
 </g>
 <circle cy="224.411" stroke-width="0" stroke="none" fill="black" r="1.44" cx="259.2"/>
 <circle cy="224.411" stroke-width="0" stroke="none" fill="black" r="1.44" cx="216"/>
 <g partID="855451410">
  <line stroke-width="0.699998" x1="216" stroke="#404040" y2="224.411" stroke-linecap="round" y1="224.411" x2="172.8"/>
 </g>
 <circle cy="224.411" stroke-width="0" stroke="none" fill="black" r="1.44" cx="216"/>
 <circle cy="224.411" stroke-width="0" stroke="none" fill="black" r="1.44" cx="172.8"/>
 <g partID="855451610">
  <line stroke-width="0.699998" x1="172.8" stroke="#404040" y2="224.411" stroke-linecap="round" y1="224.411" x2="129.6"/>
 </g>
 <circle cy="224.411" stroke-width="0" stroke="none" fill="black" r="1.44" cx="172.8"/>
 <circle cy="224.411" stroke-width="0" stroke="none" fill="black" r="1.44" cx="129.6"/>
 <g partID="855451790">
  <line stroke-width="0.699998" x1="129.6" stroke="#404040" y2="224.207" stroke-linecap="round" y1="224.411" x2="57.8373"/>
 </g>
 <circle cy="224.411" stroke-width="0" stroke="none" fill="black" r="1.44" cx="129.6"/>
 <circle cy="224.207" stroke-width="0" stroke="none" fill="black" r="0.72" cx="57.8373"/>
 <g partID="855451950">
  <line stroke-width="0.699998" x1="57.8373" stroke="#404040" y2="181.211" stroke-linecap="round" y1="224.207" x2="57.5999"/>
 </g>
 <circle cy="224.207" stroke-width="0" stroke="none" fill="black" r="0.72" cx="57.8373"/>
 <g partID="855175630" id="partLabel">
  <g transform="translate(108,10.0114)">
   <g font-family="'DroidSans'" stroke="none" fill="#000000" fill-opacity="1" id="schematicLabel" font-size="5.000" font-style="normal" font-weight="normal">
    <text x="0" y="5.000">MCU</text>
   </g>
  </g>
 </g>
 <g partID="855426000" id="partLabel">
  <g transform="translate(144.35,190.916)">
   <g font-family="'DroidSans'" stroke="none" fill="#000000" fill-opacity="1" id="schematicLabel" font-size="5.000" font-style="normal" font-weight="normal">
    <text x="0" y="5.000">R1</text>
    <text x="0" y="10.000">220&#x3a9;</text>
    <text x="0" y="15.000">&#xb1;5%</text>
   </g>
  </g>
 </g>
 <g partID="855426830" id="partLabel">
  <g transform="translate(360.35,190.916)">
   <g font-family="'DroidSans'" stroke="none" fill="#000000" fill-opacity="1" id="schematicLabel" font-size="5.000" font-style="normal" font-weight="normal">
    <text x="0" y="5.000">R6</text>
    <text x="0" y="10.000">220&#x3a9;</text>
    <text x="0" y="15.000">&#xb1;5%</text>
   </g>
  </g>
 </g>
 <g partID="855426610" id="partLabel">
  <g transform="translate(317.15,190.916)">
   <g font-family="'DroidSans'" stroke="none" fill="#000000" fill-opacity="1" id="schematicLabel" font-size="5.000" font-style="normal" font-weight="normal">
    <text x="0" y="5.000">R5</text>
    <text x="0" y="10.000">220&#x3a9;</text>
    <text x="0" y="15.000">&#xb1;5%</text>
   </g>
  </g>
 </g>
 <g partID="855426430" id="partLabel">
  <g transform="translate(273.95,190.916)">
   <g font-family="'DroidSans'" stroke="none" fill="#000000" fill-opacity="1" id="schematicLabel" font-size="5.000" font-style="normal" font-weight="normal">
    <text x="0" y="5.000">R4</text>
    <text x="0" y="10.000">220&#x3a9;</text>
    <text x="0" y="15.000">&#xb1;5%</text>
   </g>
  </g>
 </g>
 <g partID="855426290" id="partLabel">
  <g transform="translate(230.75,190.916)">
   <g font-family="'DroidSans'" stroke="none" fill="#000000" fill-opacity="1" id="schematicLabel" font-size="5.000" font-style="normal" font-weight="normal">
    <text x="0" y="5.000">R3</text>
    <text x="0" y="10.000">220&#x3a9;</text>
    <text x="0" y="15.000">&#xb1;5%</text>
   </g>
  </g>
 </g>
 <g partID="855427290" id="partLabel">
  <g transform="translate(410.75,190.916)">
   <g font-family="'DroidSans'" stroke="none" fill="#000000" fill-opacity="1" id="schematicLabel" font-size="5.000" font-style="normal" font-weight="normal">
    <text x="0" y="5.000">R7</text>
    <text x="0" y="10.000">10000&#x3a9;</text>
    <text x="0" y="15.000">&#xb1;5%</text>
   </g>
  </g>
 </g>
 <g partID="855426150" id="partLabel">
  <g transform="translate(187.55,190.916)">
   <g font-family="'DroidSans'" stroke="none" fill="#000000" fill-opacity="1" id="schematicLabel" font-size="5.000" font-style="normal" font-weight="normal">
    <text x="0" y="5.000">R2</text>
    <text x="0" y="10.000">220&#x3a9;</text>
    <text x="0" y="15.000">&#xb1;5%</text>
   </g>
  </g>
 </g>
 <g partID="855428130" id="partLabel">
  <g transform="translate(401.407,51.4489)">
   <g font-family="'DroidSans'" stroke="none" fill="#000000" fill-opacity="1" id="schematicLabel" font-size="5.000" font-style="normal" font-weight="normal">
    <text x="0" y="5.000">S1</text>
   </g>
  </g>
 </g>
 <g partID="855430450" id="partLabel">
  <g transform="translate(133.379,148.195)">
   <g font-family="'DroidSans'" stroke="none" fill="#000000" fill-opacity="1" id="schematicLabel" font-size="5.000" font-style="normal" font-weight="normal">
    <text x="0" y="5.000">LED1</text>
    <text x="0" y="10.000">Red (633nm)</text>
   </g>
  </g>
 </g>
 <g partID="855431000" id="partLabel">
  <g transform="translate(176.579,148.197)">
   <g font-family="'DroidSans'" stroke="none" fill="#000000" fill-opacity="1" id="schematicLabel" font-size="5.000" font-style="normal" font-weight="normal">
    <text x="0" y="5.000">LED2</text>
    <text x="0" y="10.000">Red (633nm)</text>
   </g>
  </g>
 </g>
 <g partID="855431120" id="partLabel">
  <g transform="translate(262.979,148.197)">
   <g font-family="'DroidSans'" stroke="none" fill="#000000" fill-opacity="1" id="schematicLabel" font-size="5.000" font-style="normal" font-weight="normal">
    <text x="0" y="5.000">LED4</text>
    <text x="0" y="10.000">Red (633nm)</text>
   </g>
  </g>
 </g>
 <g partID="855431060" id="partLabel">
  <g transform="translate(219.779,148.197)">
   <g font-family="'DroidSans'" stroke="none" fill="#000000" fill-opacity="1" id="schematicLabel" font-size="5.000" font-style="normal" font-weight="normal">
    <text x="0" y="5.000">LED3</text>
    <text x="0" y="10.000">Red (633nm)</text>
   </g>
  </g>
 </g>
 <g partID="855431180" id="partLabel">
  <g transform="translate(306.179,148.197)">
   <g font-family="'DroidSans'" stroke="none" fill="#000000" fill-opacity="1" id="schematicLabel" font-size="5.000" font-style="normal" font-weight="normal">
    <text x="0" y="5.000">LED5</text>
    <text x="0" y="10.000">Red (633nm)</text>
   </g>
  </g>
 </g>
 <g partID="855431240" id="partLabel">
  <g transform="translate(349.379,148.197)">
   <g font-family="'DroidSans'" stroke="none" fill="#000000" fill-opacity="1" id="schematicLabel" font-size="5.000" font-style="normal" font-weight="normal">
    <text x="0" y="5.000">LED6</text>
    <text x="0" y="10.000">Red (633nm)</text>
   </g>
  </g>
 </g>
</svg>
