<?xml version='1.0' encoding='UTF-8'?>
<!-- Created with Fritzing (https://fritzing.org/) -->
<svg xmlns="http://www.w3.org/2000/svg" xmlns:svg="http://www.w3.org/2000/svg" version="1.2" x="0in" y="0in" height="2.74874in" viewBox="0 0 196.16 197.909"  width="2.72445in" baseProfile="tiny">
 <g id="watermark" >
  <g >
   <g >
    <path fill="#8C8C8C"  d="M171.428,191.709c-0.604,0,-1.131,0.325,-1.422,0.809l-2.796,0l3.96,-4.071c0.146,-0.146,0.289,-0.322,0.428,-0.521c0.149,-0.222,0.228,-0.479,0.228,-0.768c0,-0.279,-0.097,-0.518,-0.287,-0.71c-0.19,-0.188,-0.444,-0.287,-0.754,-0.287l-4.636,0c-0.305,0,-0.555,0.06,-0.742,0.17c-0.219,0.13,-0.33,0.368,-0.33,0.707c0,0.329,0.111,0.562,0.33,0.692c0.188,0.111,0.438,0.168,0.742,0.168l3.148,0l-3.974,4.086c-0.146,0.147,-0.289,0.315,-0.425,0.504c-0.153,0.212,-0.23,0.472,-0.23,0.771c0,0.28,0.096,0.521,0.288,0.711c0.188,0.188,0.442,0.285,0.754,0.285l4.315,0c0.293,0.467,0.812,0.776,1.4,0.776c0.916,0,1.66,-0.744,1.66,-1.661C173.087,192.454,172.342,191.709,171.428,191.709zM171.428,193.972c-0.334,0,-0.604,-0.271,-0.604,-0.604c0,-0.333,0.27,-0.604,0.604,-0.604c0.332,0,0.604,0.271,0.604,0.604C172.031,193.703,171.76,193.972,171.428,193.972z"/>
    <path fill="#8C8C8C"  d="M154.485,181.667c-0.914,0,-1.659,0.745,-1.659,1.66c0,0.916,0.745,1.66,1.659,1.66s1.658,-0.744,1.658,-1.66C156.145,182.412,155.401,181.667,154.485,181.667zM154.486,183.93c-0.333,0,-0.604,-0.27,-0.604,-0.603s0.271,-0.603,0.604,-0.603c0.331,0,0.604,0.27,0.604,0.603S154.817,183.93,154.486,183.93z"/>
    <path fill="#8C8C8C"  d="M163.006,186.329c-0.193,-0.111,-0.439,-0.169,-0.732,-0.169l-1.465,0L160.809,183.638c0,-0.292,-0.057,-0.538,-0.166,-0.729C160.553,182.752,160.36,182.567,159.95,182.567c-0.34,0,-0.578,0.116,-0.709,0.342c-0.109,0.193,-0.167,0.438,-0.167,0.729l0,2.521l-0.481,0c-0.295,0,-0.539,0.06,-0.731,0.169c-0.228,0.129,-0.341,0.368,-0.341,0.708c0,0.412,0.185,0.603,0.341,0.692c0.192,0.111,0.438,0.168,0.731,0.168l0.481,0l0,4.362c0,0.277,0.026,0.533,0.081,0.768c0.056,0.246,0.154,0.464,0.298,0.645c0.146,0.186,0.345,0.332,0.595,0.436c0.241,0.098,0.555,0.146,0.93,0.146l0.896,0c0.292,0,0.539,-0.054,0.731,-0.166c0.154,-0.089,0.341,-0.281,0.341,-0.693c0,-0.338,-0.114,-0.578,-0.341,-0.709c-0.192,-0.109,-0.439,-0.168,-0.731,-0.168l-0.821,0c-0.138,0,-0.19,-0.019,-0.207,-0.024c-0.014,-0.034,-0.035,-0.103,-0.035,-0.231L160.811,187.897l1.465,0c0.295,0,0.541,-0.057,0.734,-0.168c0.152,-0.09,0.34,-0.28,0.34,-0.692C163.346,186.697,163.233,186.458,163.006,186.329z"/>
    <path fill="#8C8C8C"  d="M154.551,186.159l-1.191,0c-0.292,0,-0.538,0.059,-0.731,0.169c-0.226,0.129,-0.341,0.368,-0.341,0.708c0,0.412,0.188,0.604,0.341,0.691c0.193,0.113,0.439,0.168,0.731,0.168l0.544,0l0,5.362c0,0.293,0.057,0.539,0.167,0.73c0.131,0.227,0.367,0.341,0.708,0.341c0.411,0,0.604,-0.187,0.692,-0.341c0.111,-0.191,0.168,-0.438,0.168,-0.73L155.639,187.247c0,-0.386,-0.084,-0.656,-0.256,-0.83C155.208,186.245,154.938,186.159,154.551,186.159z"/>
    <path fill="#8C8C8C"  d="M150.716,186.329c-0.193,-0.111,-0.44,-0.169,-0.732,-0.169l-0.604,0c-0.25,0,-0.498,0.063,-0.734,0.187c-0.226,0.119,-0.433,0.271,-0.616,0.453l-0.644,0.604l0,-0.247c0,-0.291,-0.055,-0.538,-0.168,-0.729c-0.128,-0.228,-0.368,-0.34,-0.707,-0.34c-0.41,0,-0.604,0.184,-0.693,0.34c-0.11,0.191,-0.167,0.438,-0.167,0.729l0,4.801c-0.475,0.293,-0.791,0.816,-0.791,1.412c0,0.917,0.745,1.661,1.658,1.661c0.916,0,1.66,-0.744,1.66,-1.661c0,-0.596,-0.317,-1.119,-0.792,-1.412l0,-2.21l1.738,-1.564c0.1,-0.09,0.199,-0.164,0.297,-0.217c0.084,-0.045,0.174,-0.067,0.274,-0.067l0.288,0c0.292,0,0.539,-0.056,0.732,-0.169c0.155,-0.088,0.339,-0.279,0.339,-0.691C151.056,186.697,150.941,186.458,150.716,186.329zM146.517,193.972c-0.332,0,-0.603,-0.271,-0.603,-0.604c0,-0.333,0.271,-0.604,0.603,-0.604c0.333,0,0.604,0.271,0.604,0.604C147.121,193.703,146.85,193.972,146.517,193.972z"/>
    <path fill="#8C8C8C"  d="M144,182.81c-0.193,-0.111,-0.44,-0.167,-0.731,-0.167l-0.59,0c-0.2,0,-0.389,0.004,-0.562,0.016c-0.176,0.009,-0.345,0.035,-0.506,0.07c-0.168,0.041,-0.336,0.109,-0.496,0.202c-0.158,0.093,-0.319,0.222,-0.48,0.382c-0.334,0.314,-0.554,0.656,-0.652,1.017c-0.094,0.348,-0.143,0.735,-0.143,1.151l0,0.678l-0.483,0c-0.292,0,-0.539,0.059,-0.73,0.169c-0.227,0.13,-0.342,0.369,-0.342,0.708c0,0.412,0.185,0.604,0.341,0.693c0.191,0.111,0.438,0.166,0.73,0.166l0.483,0l0,5.362c0,0.293,0.057,0.539,0.167,0.73c0.13,0.227,0.367,0.341,0.708,0.341c0.411,0,0.603,-0.187,0.692,-0.341c0.111,-0.191,0.168,-0.438,0.168,-0.73l0,-5.36l0.92,0c0.293,0,0.54,-0.057,0.732,-0.168c0.155,-0.09,0.34,-0.28,0.34,-0.692c0,-0.34,-0.114,-0.579,-0.34,-0.708c-0.189,-0.111,-0.436,-0.17,-0.729,-0.17l-0.92,0l0,-0.678c0,-0.218,0.019,-0.41,0.056,-0.571c0.032,-0.141,0.103,-0.261,0.218,-0.367l0.002,-0.004l0.002,-0.002c0.082,-0.082,0.176,-0.126,0.29,-0.136c0.15,-0.015,0.339,-0.022,0.564,-0.022l0.56,0c0.291,0,0.539,-0.058,0.731,-0.168c0.154,-0.088,0.339,-0.281,0.339,-0.693C144.34,183.179,144.225,182.94,144,182.81z"/>
    <path fill="#8C8C8C"  d="M195.993,186.427c-0.089,-0.156,-0.282,-0.34,-0.693,-0.34c-0.339,0,-0.578,0.113,-0.707,0.34c-0.078,0.133,-0.127,0.293,-0.152,0.477l-0.021,-0.021c-0.216,-0.236,-0.466,-0.42,-0.747,-0.539c-0.277,-0.119,-0.563,-0.183,-0.849,-0.183l-0.709,0c-0.249,0,-0.466,0.015,-0.64,0.041c-0.182,0.026,-0.352,0.074,-0.51,0.14c-0.158,0.066,-0.313,0.15,-0.459,0.254c-0.139,0.097,-0.303,0.226,-0.486,0.377c-0.188,0.156,-0.342,0.302,-0.463,0.434c-0.127,0.141,-0.23,0.293,-0.306,0.455c-0.069,0.16,-0.122,0.337,-0.147,0.523c-0.026,0.178,-0.041,0.391,-0.041,0.631l0,2.386c0,0.24,0.015,0.451,0.041,0.631c0.025,0.188,0.078,0.361,0.147,0.521c0.074,0.164,0.179,0.318,0.306,0.457c0.119,0.129,0.274,0.274,0.463,0.433c0.186,0.153,0.35,0.28,0.486,0.379c0.146,0.103,0.299,0.188,0.459,0.254c0.158,0.065,0.329,0.112,0.51,0.14c0.174,0.026,0.389,0.039,0.64,0.039l0.709,0c0.298,0,0.591,-0.066,0.87,-0.199c0.244,-0.114,0.492,-0.291,0.73,-0.523l0,1.434c0,0.18,-0.025,0.334,-0.072,0.465c-0.043,0.119,-0.159,0.258,-0.344,0.406c-0.154,0.127,-0.309,0.217,-0.457,0.264c-0.15,0.049,-0.341,0.074,-0.563,0.074l-2.203,0c-0.293,0,-0.538,0.055,-0.732,0.166c-0.152,0.088,-0.34,0.282,-0.34,0.692c0,0.341,0.115,0.579,0.34,0.71c0.194,0.109,0.439,0.167,0.732,0.167l2.326,0c0.247,0,0.463,-0.015,0.638,-0.041c0.179,-0.026,0.351,-0.073,0.513,-0.14c0.153,-0.064,0.31,-0.15,0.455,-0.254c0.143,-0.101,0.305,-0.227,0.487,-0.379c0.185,-0.153,0.343,-0.299,0.463,-0.431c0.128,-0.141,0.229,-0.294,0.304,-0.456c0.071,-0.162,0.123,-0.338,0.148,-0.523c0.025,-0.182,0.041,-0.393,0.041,-0.631l0,-7.898C196.16,186.865,196.106,186.618,195.993,186.427zM194.424,190.887c0,0.188,-0.062,0.35,-0.188,0.49c-0.15,0.172,-0.394,0.403,-0.716,0.686l-0.002,0.003l-0.002,0.004c-0.139,0.13,-0.291,0.237,-0.453,0.325c-0.148,0.082,-0.325,0.121,-0.526,0.121L192.236,192.516c-0.222,0,-0.41,-0.021,-0.563,-0.072c-0.148,-0.049,-0.301,-0.137,-0.453,-0.264c-0.231,-0.186,-0.315,-0.322,-0.346,-0.404c-0.049,-0.131,-0.072,-0.285,-0.072,-0.465l0,-2.206c0,-0.18,0.023,-0.336,0.072,-0.467c0.029,-0.082,0.113,-0.217,0.346,-0.403c0.152,-0.127,0.305,-0.216,0.453,-0.265c0.153,-0.049,0.342,-0.072,0.563,-0.072l0.301,0c0.212,0,0.388,0.037,0.526,0.113c0.152,0.082,0.308,0.191,0.457,0.324c0.322,0.293,0.564,0.529,0.716,0.7c0.128,0.146,0.188,0.304,0.188,0.492L194.424,190.887z"/>
    <path fill="#8C8C8C"  d="M176.014,181.667c-0.914,0,-1.66,0.745,-1.66,1.66c0,0.916,0.746,1.66,1.66,1.66s1.66,-0.744,1.66,-1.66C177.674,182.412,176.928,181.667,176.014,181.667zM176.014,183.93c-0.332,0,-0.604,-0.27,-0.604,-0.603s0.271,-0.603,0.604,-0.603s0.604,0.27,0.604,0.603C176.618,183.66,176.346,183.93,176.014,183.93z"/>
    <path fill="#8C8C8C"  d="M186.7,191.935l-0.107,-3.419c-0.011,-0.178,-0.021,-0.338,-0.031,-0.489c-0.01,-0.162,-0.037,-0.322,-0.082,-0.476c-0.045,-0.158,-0.11,-0.309,-0.198,-0.453c-0.093,-0.146,-0.216,-0.289,-0.37,-0.42c-0.225,-0.192,-0.443,-0.334,-0.646,-0.416c-0.207,-0.084,-0.461,-0.127,-0.754,-0.127l-1.012,0c-0.259,0,-0.501,0.058,-0.716,0.164c-0.197,0.098,-0.39,0.203,-0.572,0.315l-0.003,0.002l-0.003,0.003l-0.837,0.555l0,-0.041c0,-0.291,-0.057,-0.539,-0.168,-0.733c-0.129,-0.226,-0.367,-0.339,-0.707,-0.339c-0.411,0,-0.604,0.185,-0.693,0.339c-0.109,0.194,-0.168,0.438,-0.168,0.733l0,6.099c0,0.295,0.059,0.539,0.168,0.734c0.09,0.153,0.282,0.338,0.693,0.338c0.34,0,0.578,-0.114,0.707,-0.338c0.111,-0.195,0.168,-0.439,0.168,-0.734L181.369,189.197l1.953,-1.215c0.04,-0.024,0.082,-0.048,0.121,-0.063c0.031,-0.016,0.07,-0.025,0.115,-0.031c0.049,-0.012,0.117,-0.016,0.195,-0.016l0.362,0c0.188,0,0.334,0.021,0.435,0.059c0.082,0.029,0.143,0.076,0.18,0.143c0.05,0.078,0.08,0.18,0.098,0.303c0.02,0.139,0.034,0.309,0.045,0.504l0.096,3.097c-0.457,0.297,-0.762,0.811,-0.762,1.394c0,0.917,0.746,1.661,1.66,1.661c0.916,0,1.66,-0.744,1.66,-1.661C187.526,192.76,187.193,192.222,186.7,191.935zM185.866,193.972c-0.334,0,-0.602,-0.271,-0.602,-0.604c0,-0.333,0.268,-0.604,0.602,-0.604c0.333,0,0.604,0.271,0.604,0.604C186.471,193.703,186.199,193.972,185.866,193.972z"/>
    <path fill="#8C8C8C"  d="M176.077,186.159l-1.193,0c-0.293,0,-0.539,0.059,-0.731,0.169c-0.226,0.129,-0.341,0.368,-0.341,0.708c0,0.412,0.186,0.604,0.341,0.691c0.192,0.113,0.438,0.168,0.731,0.168l0.545,0l0,5.362c0,0.293,0.055,0.539,0.168,0.73c0.127,0.227,0.365,0.341,0.707,0.341c0.41,0,0.604,-0.187,0.691,-0.341c0.111,-0.191,0.17,-0.438,0.17,-0.73L177.165,187.247c0,-0.386,-0.085,-0.656,-0.259,-0.83C176.734,186.245,176.461,186.159,176.077,186.159z"/>
   </g>
  </g>
 </g>
 <g partID="855183050">
  <g transform="translate(147.096,7.80258)">
   <g transform="matrix(0,1,-1,0,0,0)">
    <g id="schematic" >
     <line stroke-width="0.432002" stroke="#000000" y2="0.216" class="other" stroke-linecap="round"  y1="3.096" x2="8.63003" x1="7.55002"/>
     <line stroke-width="0.432002" stroke="#000000" y2="5.976" class="other" stroke-linecap="round"  y1="0.216" x2="10.43" x1="8.63003"/>
     <line stroke-width="0.432002" stroke="#000000" y2="0.216" class="other" stroke-linecap="round"  y1="5.976" x2="12.23" x1="10.43"/>
     <line stroke-width="0.432002" stroke="#000000" y2="5.976" class="other" stroke-linecap="round"  y1="0.216" x2="14.03" x1="12.23"/>
     <line stroke-width="0.432002" stroke="#000000" y2="0.216" class="other" stroke-linecap="round"  y1="5.976" x2="15.8301" x1="14.03"/>
     <line stroke-width="0.432002" stroke="#000000" y2="5.976" class="other" stroke-linecap="round"  y1="0.216" x2="17.6301" x1="15.8301"/>
     <line stroke-width="0.432002" stroke="#000000" y2="0.216" class="other" stroke-linecap="round"  y1="5.976" x2="19.4301" x1="17.6301"/>
     <line stroke-width="0.432002" stroke="#000000" y2="5.976" class="other" stroke-linecap="round"  y1="0.216" x2="21.2301" x1="19.4301"/>
     <line stroke-width="0.432002" stroke="#000000" y2="3.096" class="other" stroke-linecap="round"  y1="5.976" x2="21.9501" x1="21.2301"/>
     <line stroke-width="0.700001" stroke="#787878" id="connector1pin" y2="3.096" class="pin" stroke-linecap="round"  y1="3.096" connectorname="2" x2="21.9501" x1="29.1502"/>
     <g fill="none" stroke-width="0" x="29.1502" stroke="none" id="connector1terminal" y="3.096" class="terminal" height="0.000283465"  width="0.000283466"/>
     <text fill="#8c8c8c" stroke-width="0" x="25.5501" stroke="none" y="2.046" class="text"  font-family="'Droid Sans'" text-anchor="middle" font-size="2.50001">2</text>
     <line stroke-width="0.700001" stroke="#787878" id="connector0pin" y2="3.096" class="pin" stroke-linecap="round"  y1="3.096" connectorname="1" x2="7.55002" x1="0.350001"/>
     <g fill="none" stroke-width="0" x="0.350001" stroke="none" id="connector0terminal" y="3.096" class="terminal" height="0.000283465"  width="0.000283466"/>
     <text fill="#8c8c8c" stroke-width="0" x="3.95001" stroke="none" y="2.046" class="text"  font-family="'Droid Sans'" text-anchor="middle" font-size="2.50001">1</text>
    </g>
   </g>
  </g>
 </g>
 <g partID="855195490">
  <g transform="translate(134.099,51.1366)">
   <g id="schematic">
    <g>
     <path d="M13.5,14.966L9.9,14.966c-0.193,0,-0.35,-0.156,-0.35,-0.35s0.156,-0.35,0.35,-0.35L13.5,14.266c0.193,0,0.35,0.156,0.35,0.35S13.694,14.966,13.5,14.966z"/>
    </g>
    <g>
     <path d="M9.9,14.966L6.3,14.966c-0.193,0,-0.35,-0.156,-0.35,-0.35s0.157,-0.35,0.35,-0.35l3.6,0c0.193,0,0.35,0.156,0.35,0.35S10.093,14.966,9.9,14.966z"/>
    </g>
    <g>
     <polygon fill="#FFFFFF" points="9.9,14.616,6.3,7.416,9.9,7.416,13.5,7.416"/>
     <path d="M9.9,15.398L5.734,7.066l8.333,0L9.9,15.398zM6.866,7.766L9.9,13.834l3.034,-6.068L6.866,7.766z"/>
    </g>
    <g>
     <path d="M9.9,14.841c-0.124,0,-0.225,-0.101,-0.225,-0.225l0,-7.2c0,-0.124,0.101,-0.225,0.225,-0.225s0.225,0.101,0.225,0.225l0,7.2C10.124,14.74,10.024,14.841,9.9,14.841z"/>
    </g>
    <g>
     <path d="M1.8,12.141c-0.058,0,-0.115,-0.021,-0.159,-0.065c-0.088,-0.088,-0.088,-0.23,0,-0.318l2.34,-2.341c0.088,-0.088,0.23,-0.088,0.318,0s0.088,0.23,0,0.318l-2.34,2.341C1.915,12.12,1.858,12.141,1.8,12.141z"/>
    </g>
    <g>
     <path d="M2.16,15.381c-0.058,0,-0.115,-0.021,-0.159,-0.065c-0.088,-0.088,-0.088,-0.23,0,-0.318l2.34,-2.34c0.088,-0.088,0.23,-0.088,0.318,0s0.088,0.23,0,0.318l-2.34,2.34C2.276,15.359,2.218,15.381,2.16,15.381z"/>
    </g>
    <g id="connector0pin">
     <path fill="#787878" d="M9.9,22.166c-0.193,0,-0.35,-0.156,-0.35,-0.35l0,-7.2c0,-0.193,0.156,-0.35,0.35,-0.35s0.35,0.156,0.35,0.35l0,7.2C10.249,22.01,10.093,22.166,9.9,22.166z"/>
    </g>
    <g id="connector0terminal">
     <rect fill="none" x="9.9" y="21.816" height="0.001" width="0.001"/>
    </g>
    <g transform="matrix(1, 0, 0, 1, 3.429, 6.4262)">
     <g>
      <g transform="rotate(270)">
       <g>
        <g enable-background="new    ">
         <path fill="#787878" d="M-11.647,5.54l-0.891,0L-12.538,5.388l0.342,-0.372c0.049,-0.053,0.093,-0.101,0.131,-0.145s0.071,-0.086,0.099,-0.128c0.026,-0.042,0.047,-0.084,0.062,-0.125c0.015,-0.043,0.021,-0.088,0.021,-0.138c0,-0.038,-0.005,-0.072,-0.017,-0.102s-0.027,-0.054,-0.047,-0.075c-0.021,-0.02,-0.045,-0.035,-0.073,-0.046s-0.06,-0.016,-0.094,-0.016c-0.062,0,-0.118,0.013,-0.167,0.038c-0.051,0.024,-0.098,0.057,-0.143,0.096l-0.1,-0.116c0.025,-0.023,0.055,-0.046,0.084,-0.065c0.029,-0.021,0.063,-0.039,0.097,-0.054s0.071,-0.026,0.109,-0.036c0.038,-0.008,0.079,-0.013,0.121,-0.013c0.063,0,0.119,0.009,0.169,0.026c0.051,0.018,0.094,0.043,0.129,0.076c0.035,0.032,0.063,0.072,0.082,0.119c0.019,0.048,0.028,0.101,0.028,0.16c0,0.056,-0.009,0.108,-0.026,0.158c-0.017,0.05,-0.041,0.1,-0.07,0.148c-0.031,0.048,-0.066,0.097,-0.109,0.146c-0.041,0.049,-0.087,0.1,-0.136,0.152L-12.32,5.37l0,0.008l0.673,0L-11.647,5.54z"/>
        </g>
       </g>
      </g>
     </g>
    </g>
    <g id="connector1pin">
     <path fill="#787878" d="M9.9,7.766c-0.193,0,-0.35,-0.157,-0.35,-0.35l0,-7.2c0,-0.193,0.156,-0.35,0.35,-0.35s0.35,0.157,0.35,0.35l0,7.2C10.249,7.609,10.093,7.766,9.9,7.766z"/>
    </g>
    <g id="connector1terminal">
     <polygon fill="none" points="9.9,0.216,9.901,0.216,9.901,0.216"/>
    </g>
    <g transform="matrix(1, 0, 0, 1, 3.429, 1.3462)">
     <g>
      <g transform="rotate(270)">
       <g>
        <g enable-background="new    ">
         <path fill="#787878" d="M-2.616,5.54l-0.172,0L-2.788,4.648c0,-0.028,0,-0.058,0,-0.09s0.001,-0.063,0.002,-0.095c0.001,-0.032,0.002,-0.063,0.003,-0.092c0.001,-0.028,0.002,-0.054,0.002,-0.076c-0.011,0.012,-0.021,0.021,-0.029,0.03s-0.017,0.017,-0.026,0.024s-0.018,0.016,-0.028,0.025c-0.01,0.008,-0.021,0.019,-0.035,0.03l-0.145,0.118l-0.094,-0.12l0.374,-0.292l0.146,0L-2.618,5.54z"/>
        </g>
       </g>
      </g>
     </g>
    </g>
    <g>
     <path d="M0.18,13.536l1.08,-2.521l1.44,1.438L0.18,13.536z"/>
    </g>
    <g>
     <path d="M0.54,16.776l1.08,-2.521l1.438,1.438L0.54,16.776z"/>
    </g>
   </g>
  </g>
 </g>
 <g partID="855204040">
  <g transform="translate(162.342,109.45)">
   <g transform="matrix(0,1,-1,0,0,0)">
    <g id="schematic">
     <line fill="none" stroke-width="0.7" stroke="#000000" y2="11.159" stroke-linecap="round" y1="11.159" x2="21.6" x1="19.8"/>
     <line fill="none" stroke-width="0.7" stroke="#000000" y2="7.559" stroke-linecap="round" y1="11.159" x2="19.8" x1="7.2"/>
     <circle cx="7.2" fill="none" r="0.36" stroke-width="0.7" stroke="#000000" cy="11.159"/>
     <circle cx="21.6" fill="none" r="0.36" stroke-width="0.7" stroke="#000000" cy="11.159"/>
     <g transform="matrix(1, 0, 0, 1, 2.7612, 2.718)">
      <text fill="#787878" font-family="'DroidSans'" font-size="2">1</text>
     </g>
     <g transform="matrix(1, 0, 0, 1, 24.604, 2.718)">
      <text fill="#787878" font-family="'DroidSans'" font-size="2">2</text>
     </g>
     <g transform="matrix(1, 0, 0, 1, 2.7612, 16.843)">
      <text fill="#787878" font-family="'DroidSans'" font-size="2">1</text>
     </g>
     <g transform="matrix(1, 0, 0, 1, 24.604, 16.843)">
      <text fill="#787878" font-family="'DroidSans'" font-size="2">2</text>
     </g>
     <line fill="none" stroke-width="0.7" stroke="#000000" y2="18.359" stroke-linecap="round" y1="3.96" x2="21.6" x1="21.6"/>
     <line fill="none" stroke-width="0.7" stroke="#000000" y2="18.359" stroke-linecap="round" y1="3.96" x2="7.2" x1="7.2"/>
     <line fill="none" stroke-width="0.7" stroke="#555555" id="connector3pin" y2="18.359" stroke-linecap="round" y1="18.359" x2="7.2" x1="0.322"/>
     <line fill="none" stroke-width="0.7" stroke="#555555" id="connector2pin" y2="3.96" stroke-linecap="round" y1="3.96" x2="7.2" x1="0.322"/>
     <g fill="none" id="connector2terminal" points="0.822,4.281,0.837,3.64,0,3.64,0,4.281"/>
     <g fill="none" id="connector3terminal" points="0.822,18.694,0.837,18.053,0,18.053,0,18.694"/>
     <line fill="none" stroke-width="0.7" stroke="#555555" id="connector1pin" y2="18.359" stroke-linecap="round" y1="18.359" x2="21.6" x1="28.451"/>
     <g fill="none" x="27.806" id="connector1terminal" y="18.006" height="0.672" width="0.994"/>
     <g fill="none" x="27.712" id="connector0terminal" y="3.6" height="0.719" width="1.088"/>
     <line fill="none" stroke-width="0.7" stroke="#555555" id="connector0pin" y2="3.96" stroke-linecap="round" y1="3.96" x2="21.6" x1="28.451"/>
    </g>
   </g>
  </g>
 </g>
 <g partID="855203500">
  <g transform="translate(183.942,109.45)">
   <g transform="matrix(0,1,-1,0,0,0)">
    <g id="schematic">
     <line fill="none" stroke-width="0.7" stroke="#000000" y2="11.159" stroke-linecap="round" y1="11.159" x2="21.6" x1="19.8"/>
     <line fill="none" stroke-width="0.7" stroke="#000000" y2="7.559" stroke-linecap="round" y1="11.159" x2="19.8" x1="7.2"/>
     <circle cx="7.2" fill="none" r="0.36" stroke-width="0.7" stroke="#000000" cy="11.159"/>
     <circle cx="21.6" fill="none" r="0.36" stroke-width="0.7" stroke="#000000" cy="11.159"/>
     <g transform="matrix(1, 0, 0, 1, 2.7612, 2.718)">
      <text fill="#787878" font-family="'DroidSans'" font-size="2">1</text>
     </g>
     <g transform="matrix(1, 0, 0, 1, 24.604, 2.718)">
      <text fill="#787878" font-family="'DroidSans'" font-size="2">2</text>
     </g>
     <g transform="matrix(1, 0, 0, 1, 2.7612, 16.843)">
      <text fill="#787878" font-family="'DroidSans'" font-size="2">1</text>
     </g>
     <g transform="matrix(1, 0, 0, 1, 24.604, 16.843)">
      <text fill="#787878" font-family="'DroidSans'" font-size="2">2</text>
     </g>
     <line fill="none" stroke-width="0.7" stroke="#000000" y2="18.359" stroke-linecap="round" y1="3.96" x2="21.6" x1="21.6"/>
     <line fill="none" stroke-width="0.7" stroke="#000000" y2="18.359" stroke-linecap="round" y1="3.96" x2="7.2" x1="7.2"/>
     <line fill="none" stroke-width="0.7" stroke="#555555" id="connector3pin" y2="18.359" stroke-linecap="round" y1="18.359" x2="7.2" x1="0.322"/>
     <line fill="none" stroke-width="0.7" stroke="#555555" id="connector2pin" y2="3.96" stroke-linecap="round" y1="3.96" x2="7.2" x1="0.322"/>
     <g fill="none" id="connector2terminal" points="0.822,4.281,0.837,3.64,0,3.64,0,4.281"/>
     <g fill="none" id="connector3terminal" points="0.822,18.694,0.837,18.053,0,18.053,0,18.694"/>
     <line fill="none" stroke-width="0.7" stroke="#555555" id="connector1pin" y2="18.359" stroke-linecap="round" y1="18.359" x2="21.6" x1="28.451"/>
     <g fill="none" x="27.806" id="connector1terminal" y="18.006" height="0.672" width="0.994"/>
     <g fill="none" x="27.712" id="connector0terminal" y="3.6" height="0.719" width="1.088"/>
     <line fill="none" stroke-width="0.7" stroke="#555555" id="connector0pin" y2="3.96" stroke-linecap="round" y1="3.96" x2="21.6" x1="28.451"/>
    </g>
   </g>
  </g>
 </g>
 <g partID="855175630">
  <g transform="translate(0,8.15258)">
   <g id="schematic">
    <rect fill="#FFFFFF" stroke-width="0.9" x="14.85" stroke="#000000" y="14.85" class="interior rect" height="135.9" stroke-linecap="round" width="78.3"/>
    <line fill="none" stroke-width="0.699999" stroke="#787878" id="connector61pin" y2="28.8" class="pin" stroke-linecap="round" y1="28.8" x2="107.65" x1="93.2499"/>
    <text fill="#8c8c8c" stroke-width="0" x="91.8499" stroke="none" y="29.4999" class="text" font-family="'Droid Sans'" text-anchor="end" font-size="3.49999">D0/RX</text>
    <g fill="none" stroke-width="0" x="107.65" stroke="none" id="connector61terminal" y="28.4499" class="terminal" height="0.699999" width="0.699999"/>
    <line fill="none" stroke-width="0.699999" stroke="#787878" id="connector62pin" y2="36" class="pin" stroke-linecap="round" y1="36" x2="107.65" x1="93.2499"/>
    <text fill="#8c8c8c" stroke-width="0" x="91.8499" stroke="none" y="36.6999" class="text" font-family="'Droid Sans'" text-anchor="end" font-size="3.49999">D1/TX</text>
    <g fill="none" stroke-width="0" x="107.65" stroke="none" id="connector62terminal" y="35.6499" class="terminal" height="0.699999" width="0.699999"/>
    <line fill="none" stroke-width="0.699999" stroke="#787878" id="connector63pin" y2="43.2" class="pin" stroke-linecap="round" y1="43.2" x2="107.65" x1="93.2499"/>
    <text fill="#8c8c8c" stroke-width="0" x="91.8499" stroke="none" y="43.8999" class="text" font-family="'Droid Sans'" text-anchor="end" font-size="3.49999">D2</text>
    <g fill="none" stroke-width="0" x="107.65" stroke="none" id="connector63terminal" y="42.8499" class="terminal" height="0.699999" width="0.699999"/>
    <line fill="none" stroke-width="0.699999" stroke="#787878" id="connector64pin" y2="50.4" class="pin" stroke-linecap="round" y1="50.4" x2="107.65" x1="93.2499"/>
    <text fill="#8c8c8c" stroke-width="0" x="91.8499" stroke="none" y="51.0999" class="text" font-family="'Droid Sans'" text-anchor="end" font-size="3.49999">D3 PWM</text>
    <g fill="none" stroke-width="0" x="107.65" stroke="none" id="connector64terminal" y="50.0499" class="terminal" height="0.699999" width="0.699999"/>
    <line fill="none" stroke-width="0.699999" stroke="#787878" id="connector65pin" y2="57.6" class="pin" stroke-linecap="round" y1="57.6" x2="107.65" x1="93.2499"/>
    <text fill="#8c8c8c" stroke-width="0" x="91.8499" stroke="none" y="58.2999" class="text" font-family="'Droid Sans'" text-anchor="end" font-size="3.49999">D4</text>
    <g fill="none" stroke-width="0" x="107.65" stroke="none" id="connector65terminal" y="57.2499" class="terminal" height="0.699999" width="0.699999"/>
    <line fill="none" stroke-width="0.699999" stroke="#787878" id="connector66pin" y2="64.8" class="pin" stroke-linecap="round" y1="64.8" x2="107.65" x1="93.2499"/>
    <text fill="#8c8c8c" stroke-width="0" x="91.8499" stroke="none" y="65.4999" class="text" font-family="'Droid Sans'" text-anchor="end" font-size="3.49999">D5 PWM</text>
    <g fill="none" stroke-width="0" x="107.65" stroke="none" id="connector66terminal" y="64.4499" class="terminal" height="0.699999" width="0.699999"/>
    <line fill="none" stroke-width="0.699999" stroke="#787878" id="connector67pin" y2="72" class="pin" stroke-linecap="round" y1="72" x2="107.65" x1="93.2499"/>
    <text fill="#8c8c8c" stroke-width="0" x="91.8499" stroke="none" y="72.6999" class="text" font-family="'Droid Sans'" text-anchor="end" font-size="3.49999">D6 PWM</text>
    <g fill="none" stroke-width="0" x="107.65" stroke="none" id="connector67terminal" y="71.6499" class="terminal" height="0.699999" width="0.699999"/>
    <line fill="none" stroke-width="0.699999" stroke="#787878" id="connector68pin" y2="79.2" class="pin" stroke-linecap="round" y1="79.2" x2="107.65" x1="93.2499"/>
    <text fill="#8c8c8c" stroke-width="0" x="91.8499" stroke="none" y="79.8999" class="text" font-family="'Droid Sans'" text-anchor="end" font-size="3.49999">D7</text>
    <g fill="none" stroke-width="0" x="107.65" stroke="none" id="connector68terminal" y="78.8499" class="terminal" height="0.699999" width="0.699999"/>
    <line fill="none" stroke-width="0.699999" stroke="#787878" id="connector51pin" y2="86.4" class="pin" stroke-linecap="round" y1="86.4" x2="107.65" x1="93.2499"/>
    <text fill="#8c8c8c" stroke-width="0" x="91.8499" stroke="none" y="87.0999" class="text" font-family="'Droid Sans'" text-anchor="end" font-size="3.49999">D8</text>
    <g fill="none" stroke-width="0" x="107.65" stroke="none" id="connector51terminal" y="86.0499" class="terminal" height="0.699999" width="0.699999"/>
    <line fill="none" stroke-width="0.699999" stroke="#787878" id="connector52pin" y2="93.6" class="pin" stroke-linecap="round" y1="93.6" x2="107.65" x1="93.2499"/>
    <text fill="#8c8c8c" stroke-width="0" x="91.8499" stroke="none" y="94.2999" class="text" font-family="'Droid Sans'" text-anchor="end" font-size="3.49999">D9 PWM</text>
    <g fill="none" stroke-width="0" x="107.65" stroke="none" id="connector52terminal" y="93.2499" class="terminal" height="0.699999" width="0.699999"/>
    <line fill="none" stroke-width="0.699999" stroke="#787878" id="connector53pin" y2="100.8" class="pin" stroke-linecap="round" y1="100.8" x2="107.65" x1="93.2499"/>
    <text fill="#8c8c8c" stroke-width="0" x="91.8499" stroke="none" y="101.5" class="text" font-family="'Droid Sans'" text-anchor="end" font-size="3.49999">D10 PWM/SS</text>
    <g fill="none" stroke-width="0" x="107.65" stroke="none" id="connector53terminal" y="100.45" class="terminal" height="0.699999" width="0.699999"/>
    <line fill="none" stroke-width="0.699999" stroke="#787878" id="connector54pin" y2="108" class="pin" stroke-linecap="round" y1="108" x2="107.65" x1="93.2499"/>
    <text fill="#8c8c8c" stroke-width="0" x="91.8499" stroke="none" y="108.7" class="text" font-family="'Droid Sans'" text-anchor="end" font-size="3.49999">D11 PWM/MOSI</text>
    <g fill="none" stroke-width="0" x="107.65" stroke="none" id="connector54terminal" y="107.65" class="terminal" height="0.699999" width="0.699999"/>
    <line fill="none" stroke-width="0.699999" stroke="#787878" id="connector55pin" y2="115.2" class="pin" stroke-linecap="round" y1="115.2" x2="107.65" x1="93.2499"/>
    <text fill="#8c8c8c" stroke-width="0" x="91.8499" stroke="none" y="115.9" class="text" font-family="'Droid Sans'" text-anchor="end" font-size="3.49999">D12/MISO</text>
    <g fill="none" stroke-width="0" x="107.65" stroke="none" id="connector55terminal" y="114.85" class="terminal" height="0.699999" width="0.699999"/>
    <line fill="none" stroke-width="0" stroke="none" id="connector41pin" y2="122.4" class="pin" stroke-linecap="round" y1="122.4" x2="107.65" x1="93.2499"/>
    <rect fill="none" stroke-width="0" x="107.65" stroke="none" id="connector41terminal" y="122.05" class="terminal" height="0.699999" width="0.699999"/>
    <line fill="none" stroke-width="0.699999" stroke="#787878" id="connector56pin" y2="122.4" class="pin" stroke-linecap="round" y1="122.4" x2="107.65" x1="93.2499"/>
    <text fill="#8c8c8c" stroke-width="0" x="91.8499" stroke="none" y="123.1" class="text" font-family="'Droid Sans'" text-anchor="end" font-size="3.49999">D13/SCK</text>
    <g fill="none" stroke-width="0" x="107.65" stroke="none" id="connector56terminal" y="122.05" class="terminal" height="0.699999" width="0.699999"/>
    <line fill="none" stroke-width="0" stroke="none" id="connector43pin" y2="28.8" class="pin" stroke-linecap="round" y1="28.8" x2="14.75" x1="0.349999"/>
    <rect fill="none" stroke-width="0" x="-0.349999" stroke="none" id="connector43terminal" y="28.4499" class="terminal" height="0.699999" width="0.699999"/>
    <line fill="none" stroke-width="0.699999" stroke="#787878" id="connector85pin" y2="28.8" class="pin" stroke-linecap="round" y1="28.8" x2="14.75" x1="0.349999"/>
    <text fill="#8c8c8c" stroke-width="0" x="16.15" stroke="none" y="29.4999" class="text" font-family="'Droid Sans'" text-anchor="start" font-size="3.49999">RESET</text>
    <g fill="none" stroke-width="0" x="-0.349999" stroke="none" id="connector85terminal" y="28.4499" class="terminal" height="0.699999" width="0.699999"/>
    <line fill="none" stroke-width="0.699999" stroke="#787878" id="connector49pin" y2="36" class="pin" stroke-linecap="round" y1="36" x2="14.75" x1="0.349999"/>
    <text fill="#8c8c8c" stroke-width="0" x="16.15" stroke="none" y="36.6999" class="text" font-family="'Droid Sans'" text-anchor="start" font-size="3.49999">RESET2</text>
    <rect fill="none" stroke-width="0" x="-0.349999" stroke="none" id="connector49terminal" y="35.6499" class="terminal" height="0.699999" width="0.699999"/>
    <line fill="none" stroke-width="0.699999" stroke="#787878" id="connector58pin" y2="43.2" class="pin" stroke-linecap="round" y1="43.2" x2="14.75" x1="0.349999"/>
    <text fill="#8c8c8c" stroke-width="0" x="16.15" stroke="none" y="43.8999" class="text" font-family="'Droid Sans'" text-anchor="start" font-size="3.49999">AREF</text>
    <g fill="none" stroke-width="0" x="-0.349999" stroke="none" id="connector58terminal" y="42.8499" class="terminal" height="0.699999" width="0.699999"/>
    <line fill="none" stroke-width="0.699999" stroke="#787878" id="connector84pin" y2="50.4" class="pin" stroke-linecap="round" y1="50.4" x2="14.75" x1="0.349999"/>
    <text fill="#8c8c8c" stroke-width="0" x="16.15" stroke="none" y="51.0999" class="text" font-family="'Droid Sans'" text-anchor="start" font-size="3.49999">ioref</text>
    <g fill="none" stroke-width="0" x="-0.349999" stroke="none" id="connector84terminal" y="50.0499" class="terminal" height="0.699999" width="0.699999"/>
    <line fill="none" stroke-width="0.699999" stroke="#787878" id="connector0pin" y2="64.8" class="pin" stroke-linecap="round" y1="64.8" x2="14.75" x1="0.349999"/>
    <text fill="#8c8c8c" stroke-width="0" x="16.15" stroke="none" y="65.4999" class="text" font-family="'Droid Sans'" text-anchor="start" font-size="3.49999">A0</text>
    <g fill="none" stroke-width="0" x="-0.349999" stroke="none" id="connector0terminal" y="64.4499" class="terminal" height="0.699999" width="0.699999"/>
    <line fill="none" stroke-width="0.699999" stroke="#787878" id="connector1pin" y2="72" class="pin" stroke-linecap="round" y1="72" x2="14.75" x1="0.349999"/>
    <text fill="#8c8c8c" stroke-width="0" x="16.15" stroke="none" y="72.6999" class="text" font-family="'Droid Sans'" text-anchor="start" font-size="3.49999">A1</text>
    <g fill="none" stroke-width="0" x="-0.349999" stroke="none" id="connector1terminal" y="71.6499" class="terminal" height="0.699999" width="0.699999"/>
    <line fill="none" stroke-width="0.699999" stroke="#787878" id="connector2pin" y2="79.2" class="pin" stroke-linecap="round" y1="79.2" x2="14.75" x1="0.349999"/>
    <text fill="#8c8c8c" stroke-width="0" x="16.15" stroke="none" y="79.8999" class="text" font-family="'Droid Sans'" text-anchor="start" font-size="3.49999">A2</text>
    <g fill="none" stroke-width="0" x="-0.349999" stroke="none" id="connector2terminal" y="78.8499" class="terminal" height="0.699999" width="0.699999"/>
    <line fill="none" stroke-width="0.699999" stroke="#787878" id="connector3pin" y2="86.4" class="pin" stroke-linecap="round" y1="86.4" x2="14.75" x1="0.349999"/>
    <text fill="#8c8c8c" stroke-width="0" x="16.15" stroke="none" y="87.0999" class="text" font-family="'Droid Sans'" text-anchor="start" font-size="3.49999">A3</text>
    <g fill="none" stroke-width="0" x="-0.349999" stroke="none" id="connector3terminal" y="86.0499" class="terminal" height="0.699999" width="0.699999"/>
    <line fill="none" stroke-width="0" stroke="none" id="connector48pin" y2="93.6" class="pin" stroke-linecap="round" y1="93.6" x2="14.75" x1="0.349999"/>
    <rect fill="none" stroke-width="0" x="-0.349999" stroke="none" id="connector48terminal" y="93.2499" class="terminal" height="0.699999" width="0.699999"/>
    <line fill="none" stroke-width="0" stroke="none" id="connector45pin" y2="93.6" class="pin" stroke-linecap="round" y1="93.6" x2="14.75" x1="0.349999"/>
    <rect fill="none" stroke-width="0" x="-0.349999" stroke="none" id="connector45terminal" y="93.2499" class="terminal" height="0.699999" width="0.699999"/>
    <line fill="none" stroke-width="0" stroke="none" id="connector4pin" y2="93.6" class="pin" stroke-linecap="round" y1="93.6" x2="14.75" x1="0.349999"/>
    <g fill="none" stroke-width="0" x="-0.349999" stroke="none" id="connector4terminal" y="93.2499" class="terminal" height="0.699999" width="0.699999"/>
    <line fill="none" stroke-width="0" stroke="none" id="connector39pin" y2="93.6" class="pin" stroke-linecap="round" y1="93.6" x2="14.75" x1="0.349999"/>
    <rect fill="none" stroke-width="0" x="-0.349999" stroke="none" id="connector39terminal" y="93.2499" class="terminal" height="0.699999" width="0.699999"/>
    <line fill="none" stroke-width="0" stroke="none" id="connector47pin" y2="93.6" class="pin" stroke-linecap="round" y1="93.6" x2="14.75" x1="0.349999"/>
    <rect fill="none" stroke-width="0" x="-0.349999" stroke="none" id="connector47terminal" y="93.2499" class="terminal" height="0.699999" width="0.699999"/>
    <line fill="none" stroke-width="0" stroke="none" id="connector42pin" y2="93.6" class="pin" stroke-linecap="round" y1="93.6" x2="14.75" x1="0.349999"/>
    <rect fill="none" stroke-width="0" x="-0.349999" stroke="none" id="connector42terminal" y="93.2499" class="terminal" height="0.699999" width="0.699999"/>
    <line fill="none" stroke-width="0.699999" stroke="#787878" id="connector59pin" y2="93.6" class="pin" stroke-linecap="round" y1="93.6" x2="14.75" x1="0.349999"/>
    <text fill="#8c8c8c" stroke-width="0" x="16.15" stroke="none" y="94.2999" class="text" font-family="'Droid Sans'" text-anchor="start" font-size="3.49999">A4/SDA</text>
    <g fill="none" stroke-width="0" x="-0.349999" stroke="none" id="connector59terminal" y="93.2499" class="terminal" height="0.699999" width="0.699999"/>
    <line fill="none" stroke-width="0" stroke="none" id="connector5pin" y2="100.8" class="pin" stroke-linecap="round" y1="100.8" x2="14.75" x1="0.349999"/>
    <g fill="none" stroke-width="0" x="-0.349999" stroke="none" id="connector5terminal" y="100.45" class="terminal" height="0.699999" width="0.699999"/>
    <line fill="none" stroke-width="0.699999" stroke="#787878" id="connector60pin" y2="100.8" class="pin" stroke-linecap="round" y1="100.8" x2="14.75" x1="0.349999"/>
    <text fill="#8c8c8c" stroke-width="0" x="16.15" stroke="none" y="101.5" class="text" font-family="'Droid Sans'" text-anchor="start" font-size="3.49999">A5/SCL</text>
    <g fill="none" stroke-width="0" x="-0.349999" stroke="none" id="connector60terminal" y="100.45" class="terminal" height="0.699999" width="0.699999"/>
    <line fill="none" stroke-width="0.699999" stroke="#787878" id="connector91pin" y2="136.8" class="pin" stroke-linecap="round" y1="136.8" x2="14.75" x1="0.349999"/>
    <text fill="#8c8c8c" stroke-width="0" x="16.15" stroke="none" y="137.5" class="text" font-family="'Droid Sans'" text-anchor="start" font-size="3.49999">N/C</text>
    <g fill="none" stroke-width="0" x="-0.349999" stroke="none" id="connector91terminal" y="136.45" class="terminal" height="0.699999" width="0.699999"/>
    <line fill="none" stroke-width="0" stroke="none" id="connector88pin" y2="165.25" class="pin" stroke-linecap="round" y1="150.85" x2="57.6" x1="57.6"/>
    <g fill="none" stroke-width="0" x="57.2499" stroke="none" id="connector88terminal" y="165.25" class="terminal" height="0.699999" width="0.699999"/>
    <line fill="none" stroke-width="0" stroke="none" id="connector57pin" y2="165.25" class="pin" stroke-linecap="round" y1="150.85" x2="57.6" x1="57.6"/>
    <g fill="none" stroke-width="0" x="57.2499" stroke="none" id="connector57terminal" y="165.25" class="terminal" height="0.699999" width="0.699999"/>
    <line fill="none" stroke-width="0" stroke="none" id="connector44pin" y2="165.25" class="pin" stroke-linecap="round" y1="150.85" x2="57.6" x1="57.6"/>
    <rect fill="none" stroke-width="0" x="57.2499" stroke="none" id="connector44terminal" y="165.25" class="terminal" height="0.699999" width="0.699999"/>
    <line fill="none" stroke-width="0" stroke="none" id="connector50pin" y2="165.25" class="pin" stroke-linecap="round" y1="150.85" x2="57.6" x1="57.6"/>
    <rect fill="none" stroke-width="0" x="57.2499" stroke="none" id="connector50terminal" y="165.25" class="terminal" height="0.699999" width="0.699999"/>
    <line fill="none" stroke-width="0.699999" stroke="#787878" id="connector89pin" y2="165.25" class="pin" stroke-linecap="round" y1="150.85" x2="57.6" x1="57.6"/>
    <g transform="matrix(1, 0, 0, 1, 58.2999, 149.45)">
     <g>
      <g transform="rotate(270)">
       <g>
        <text fill="#8c8c8c" stroke-width="0" x="0" stroke="none" y="0" class="text" font-family="'Droid Sans'" text-anchor="start" font-size="3.49999">GND</text>
       </g>
      </g>
     </g>
    </g>
    <g fill="none" stroke-width="0" x="57.2499" stroke="none" id="connector89terminal" y="165.25" class="terminal" height="0.699999" width="0.699999"/>
    <line fill="none" stroke-width="0.699999" stroke="#787878" id="connector86pin" y2="14.75" class="pin" stroke-linecap="round" y1="0.349999" x2="36" x1="36"/>
    <g transform="matrix(1, 0, 0, 1, 36.6999, 16.15)">
     <g>
      <g transform="rotate(270)">
       <g>
        <text fill="#8c8c8c" stroke-width="0" x="0" stroke="none" y="0" class="text" font-family="'Droid Sans'" text-anchor="end" font-size="3.49999">3V3</text>
       </g>
      </g>
     </g>
    </g>
    <g fill="none" stroke-width="0" x="35.6499" stroke="none" id="connector86terminal" y="-0.349999" class="terminal" height="0.699999" width="0.699999"/>
    <line fill="none" stroke-width="0" stroke="none" id="connector40pin" y2="14.75" class="pin" stroke-linecap="round" y1="0.349999" x2="50.4" x1="50.4"/>
    <rect fill="none" stroke-width="0" x="50.0499" stroke="none" id="connector40terminal" y="-0.349999" class="terminal" height="0.699999" width="0.699999"/>
    <line fill="none" stroke-width="0" stroke="none" id="connector46pin" y2="14.75" class="pin" stroke-linecap="round" y1="0.349999" x2="50.4" x1="50.4"/>
    <rect fill="none" stroke-width="0" x="50.0499" stroke="none" id="connector46terminal" y="-0.349999" class="terminal" height="0.699999" width="0.699999"/>
    <line fill="none" stroke-width="0.699999" stroke="#787878" id="connector87pin" y2="14.75" class="pin" stroke-linecap="round" y1="0.349999" x2="50.4" x1="50.4"/>
    <g transform="matrix(1, 0, 0, 1, 51.0999, 16.15)">
     <g>
      <g transform="rotate(270)">
       <g>
        <text fill="#8c8c8c" stroke-width="0" x="0" stroke="none" y="0" class="text" font-family="'Droid Sans'" text-anchor="end" font-size="3.49999">5V</text>
       </g>
      </g>
     </g>
    </g>
    <g fill="none" stroke-width="0" x="50.0499" stroke="none" id="connector87terminal" y="-0.349999" class="terminal" height="0.699999" width="0.699999"/>
    <line fill="none" stroke-width="0.699999" stroke="#787878" id="connector90pin" y2="14.75" class="pin" stroke-linecap="round" y1="0.349999" x2="64.8" x1="64.8"/>
    <g transform="matrix(1, 0, 0, 1, 65.4999, 16.15)">
     <g>
      <g transform="rotate(270)">
       <g>
        <text fill="#8c8c8c" stroke-width="0" x="0" stroke="none" y="0" class="text" font-family="'Droid Sans'" text-anchor="end" font-size="3.49999">VIN</text>
       </g>
      </g>
     </g>
    </g>
    <g fill="none" stroke-width="0" x="64.4499" stroke="none" id="connector90terminal" y="-0.349999" class="terminal" height="0.699999" width="0.699999"/>
    <text fill="#000000" stroke-width="0" x="54.4501" stroke="none" id="label" y="76.4498" class="text" font-family="'Droid Sans'" text-anchor="middle" font-size="4.25001">Arduino</text>
    <text fill="#000000" stroke-width="0" x="54.4501" stroke="none" id="label" y="80.9833" class="text" font-family="'Droid Sans'" text-anchor="middle" font-size="4.25001">Uno</text>
    <text fill="#000000" stroke-width="0" x="54.4501" stroke="none" id="label" y="85.5167" class="text" font-family="'Droid Sans'" text-anchor="middle" font-size="4.25001">(Rev3)</text>
   </g>
  </g>
 </g>
 <g partID="855207730">
  <line stroke-width="0.699998" stroke="#404040" y2="137.753" stroke-linecap="round" y1="173.817" x2="144" x1="143.994"/>
 </g>
 <circle cx="143.994" fill="black" r="0.72" stroke-width="0" stroke="none" cy="173.817"/>
 <g partID="855207740">
  <line stroke-width="0.699998" stroke="#404040" y2="173.816" stroke-linecap="round" y1="173.753" x2="143.994" x1="57.5999"/>
 </g>
 <circle cx="143.994" fill="black" r="0.72" stroke-width="0" stroke="none" cy="173.816"/>
 <g partID="855207850">
  <line stroke-width="0.699998" stroke="#cc1414" y2="8.15252" stroke-linecap="round" y1="1.06058" x2="50.3996" x1="50.2679"/>
 </g>
 <circle cx="50.2679" fill="black" r="0.72" stroke-width="0" stroke="none" cy="1.06058"/>
 <g partID="855207910">
  <line stroke-width="0.699998" stroke="#cc1414" y2="1.06058" stroke-linecap="round" y1="1.06058" x2="50.2679" x1="143.994"/>
 </g>
 <circle cx="143.994" fill="black" r="0.72" stroke-width="0" stroke="none" cy="1.06058"/>
 <circle cx="50.2679" fill="black" r="0.72" stroke-width="0" stroke="none" cy="1.06058"/>
 <g partID="855207860">
  <line stroke-width="0.699998" stroke="#cc1414" y2="1.06092" stroke-linecap="round" y1="8.15258" x2="143.994" x1="144"/>
 </g>
 <circle cx="143.994" fill="black" r="0.72" stroke-width="0" stroke="none" cy="1.06092"/>
 <g partID="855208280">
  <line stroke-width="0.699998" stroke="#404040" y2="72.9527" stroke-linecap="round" y1="109.868" x2="144" x1="143.969"/>
 </g>
 <g partID="855208850">
  <line stroke-width="0.699998" stroke="#404040" y2="109.868" stroke-linecap="round" y1="109.868" x2="165.569" x1="158.382"/>
 </g>
 <g partID="855208970">
  <line stroke-width="0.699998" stroke="#404040" y2="137.752" stroke-linecap="round" y1="137.705" x2="165.6" x1="158.382"/>
 </g>
 <g partID="855209230">
  <line stroke-width="0.699998" stroke="#404040" y2="36.9526" stroke-linecap="round" y1="51.3526" x2="144" x1="144"/>
 </g>
 <g partID="855175630" id="partLabel">
  <g transform="translate(108,2.55258)">
   <g font-weight="normal" fill="#000000" fill-opacity="1" stroke="none" id="schematicLabel" font-style="normal" font-family="'DroidSans'" font-size="5.000">
    <text x="0" y="5.000">MCU</text>
   </g>
  </g>
 </g>
 <g partID="855183050" id="partLabel">
  <g transform="translate(158.75,3.45658)">
   <g font-weight="normal" fill="#000000" fill-opacity="1" stroke="none" id="schematicLabel" font-style="normal" font-family="'DroidSans'" font-size="5.000">
    <text x="0" y="5.000">R1</text>
    <text x="0" y="10.000">220&#x3a9;</text>
    <text x="0" y="15.000">&#xb1;5%</text>
   </g>
  </g>
 </g>
 <g partID="855195490" id="partLabel">
  <g transform="translate(147.779,39.9366)">
   <g font-weight="normal" fill="#000000" fill-opacity="1" stroke="none" id="schematicLabel" font-style="normal" font-family="'DroidSans'" font-size="5.000">
    <text x="0" y="5.000">LED1</text>
    <text x="0" y="10.000">Red (633nm)</text>
   </g>
  </g>
 </g>
 <g partID="855203500" id="partLabel">
  <g transform="translate(188.961,108.869)">
   <g font-weight="normal" fill="#000000" fill-opacity="1" stroke="none" id="schematicLabel" font-style="normal" font-family="'DroidSans'" font-size="5.000">
    <text x="0" y="5.000">S2</text>
   </g>
  </g>
 </g>
 <g partID="855204040" id="partLabel">
  <g transform="translate(167.361,108.869)">
   <g font-weight="normal" fill="#000000" fill-opacity="1" stroke="none" id="schematicLabel" font-style="normal" font-family="'DroidSans'" font-size="5.000">
    <text x="0" y="5.000">S1</text>
   </g>
  </g>
 </g>
</svg>
